  0
SECTION
  2
HEADER
  9
$ACADVER
  1
AC1009
  9
$FILLMODE
 70
1
  9
$EXTMIN
 10
-84.5762
 20
-100.2617
 30
0.0000
  9
$EXTMAX
 10
122.9890
 20
84.5112
 30
0.0000
  0
ENDSEC
  0
SECTION
  2
TABLES
  0
TABLE
  2
LTYPE
 70
1
  0
LTYPE
  2
CONTINUOUS
 70
64
  3
Solid line
 72
65
 73
0
 40
0
  0
ENDTAB
  0
TABLE
  2
LAYER
 70
255
  0
LAYER
  2
20
 70
64
 62
31
  6
CONTINUOUS
  0
ENDTAB
  0
ENDSEC
  0
SECTION
  2
BLOCKS
  0
BLOCK
  8
0
  2
RECT
 70
64
 10
0.0000
 20
0.0000
 30
0.0000
  3
RECT
  0
SOLID
  8
0
 10
-0.5000
 20
-0.5000
 30
0.0000
 11
0.5000
 21
-0.5000
 31
0.0000
 12
-0.5000
 22
0.5000
 32
0.0000
 13
0.5000
 23
0.5000
 33
0.0000
  0
ENDBLK
  8
0
  0
BLOCK
  8
0
  2
PIE
 70
64
 10
0.0000
 20
0.0000
 30
0.0000
  3
PIE
  0
POLYLINE
  8
0
 66
1
 10
0.0000
 20
0.0000
 30
0.0000
 40
0.5000
 41
0.5000
 70
0
  0
VERTEX
  8
0
 10
0.0000
 20
-0.2500
 30
0.0000
 42
1.0000
  0
VERTEX
  8
0
 10
0.0000
 20
0.2500
 30
0.0000
 42
1.0000
  0
VERTEX
  8
0
 10
0.0000
 20
-0.2500
 30
0.0000
  0
SEQEND
  8
0
  0
ENDBLK
  8
0
  0
BLOCK
  8
0
  2
OCTAGONP
 70
64
 10
0.0000
 20
0.0000
 30
0.0000
  3
OCTAGONP
  0
POLYLINE
  8
0
 66
1
 10
0.0000
 20
0.0000
 30
0.0000
 40
0.5000
 41
0.5000
 70
0
  0
VERTEX
  8
0
 10
-0.2500
 20
-0.1036
 30
0.0000
  0
VERTEX
  8
0
 10
-0.2500
 20
0.1036
 30
0.0000
  0
VERTEX
  8
0
 10
-0.1036
 20
0.2500
 30
0.0000
  0
VERTEX
  8
0
 10
0.1036
 20
0.2500
 30
0.0000
  0
VERTEX
  8
0
 10
0.2500
 20
0.1036
 30
0.0000
  0
VERTEX
  8
0
 10
0.2500
 20
-0.1036
 30
0.0000
  0
VERTEX
  8
0
 10
0.1036
 20
-0.2500
 30
0.0000
  0
VERTEX
  8
0
 10
-0.1036
 20
-0.2500
 30
0.0000
  0
VERTEX
  8
0
 10
-0.2500
 20
-0.1036
 30
0.0000
  0
VERTEX
  8
0
 10
-0.2500
 20
0.1036
 30
0.0000
  0
SEQEND
  8
0
  0
ENDBLK
  8
0
  0
BLOCK
  8
0
  2
SQUAREP
 70
64
 10
0.0000
 20
0.0000
 30
0.0000
  3
SQUAREP
  0
SOLID
  8
0
 10
-0.5000
 20
-0.5000
 30
0.0000
 11
0.5000
 21
-0.5000
 31
0.0000
 12
-0.5000
 22
0.5000
 32
0.0000
 13
0.5000
 23
0.5000
 33
0.0000
  0
ENDBLK
  8
0
  0
BLOCK
  8
0
  2
ROUNDP
 70
64
 10
0.0000
 20
0.0000
 30
0.0000
  3
ROUNDP
  0
POLYLINE
  8
0
 66
1
 10
0.0000
 20
0.0000
 30
0.0000
 40
0.5000
 41
0.5000
 70
0
  0
VERTEX
  8
0
 10
0.0000
 20
-0.2500
 30
0.0000
 42
1.0000
  0
VERTEX
  8
0
 10
0.0000
 20
0.2500
 30
0.0000
 42
1.0000
  0
VERTEX
  8
0
 10
0.0000
 20
-0.2500
 30
0.0000
  0
SEQEND
  8
0
  0
ENDBLK
  8
0
  0
BLOCK
  8
0
  2
ANNULUSP
 70
64
 10
0.0000
 20
0.0000
 30
0.0000
  3
ANNULUSP
  0
POLYLINE
  8
0
 66
1
 10
0.0000
 20
0.0000
 30
0.0000
 40
0.5000
 41
0.5000
 70
0
  0
VERTEX
  8
0
 10
0.0000
 20
-0.2500
 30
0.0000
 42
1.0000
  0
VERTEX
  8
0
 10
0.0000
 20
0.2500
 30
0.0000
 42
1.0000
  0
VERTEX
  8
0
 10
0.0000
 20
-0.2500
 30
0.0000
  0
SEQEND
  8
0
  0
ENDBLK
  8
0
  0
BLOCK
  8
0
  2
THERMALP
 70
64
 10
0.0000
 20
0.0000
 30
0.0000
  3
THERMALP
  0
POLYLINE
  8
0
 66
1
 10
0.0000
 20
0.0000
 30
0.0000
 40
0.1000
 41
0.1000
 70
0
  0
VERTEX
  8
0
 10
-0.2379
 20
0.4500
 30
0.0000
  0
VERTEX
  8
0
 10
0.2379
 20
0.4500
 30
0.0000
  0
SEQEND
  8
0
  0
POLYLINE
  8
0
 66
1
 10
0.0000
 20
0.0000
 30
0.0000
 40
0.0500
 41
0.0500
 70
0
  0
VERTEX
  8
0
 10
0.2379
 20
0.4250
 30
0.0000
 42
1.0000
  0
VERTEX
  8
0
 10
0.2379
 20
0.4750
 30
0.0000
  0
SEQEND
  8
0
  0
POLYLINE
  8
0
 66
1
 10
0.0000
 20
0.0000
 30
0.0000
 40
0.0500
 41
0.0500
 70
0
  0
VERTEX
  8
0
 10
-0.2379
 20
0.4750
 30
0.0000
 42
1.0000
  0
VERTEX
  8
0
 10
-0.2379
 20
0.4250
 30
0.0000
  0
SEQEND
  8
0
  0
POLYLINE
  8
0
 66
1
 10
0.0000
 20
0.0000
 30
0.0000
 40
0.1000
 41
0.1000
 70
0
  0
VERTEX
  8
0
 10
0.4500
 20
0.2379
 30
0.0000
  0
VERTEX
  8
0
 10
0.4500
 20
-0.2379
 30
0.0000
  0
SEQEND
  8
0
  0
POLYLINE
  8
0
 66
1
 10
0.0000
 20
0.0000
 30
0.0000
 40
0.0500
 41
0.0500
 70
0
  0
VERTEX
  8
0
 10
0.4250
 20
-0.2379
 30
0.0000
 42
1.0000
  0
VERTEX
  8
0
 10
0.4750
 20
-0.2379
 30
0.0000
  0
SEQEND
  8
0
  0
POLYLINE
  8
0
 66
1
 10
0.0000
 20
0.0000
 30
0.0000
 40
0.0500
 41
0.0500
 70
0
  0
VERTEX
  8
0
 10
0.4750
 20
0.2379
 30
0.0000
 42
1.0000
  0
VERTEX
  8
0
 10
0.4250
 20
0.2379
 30
0.0000
  0
SEQEND
  8
0
  0
POLYLINE
  8
0
 66
1
 10
0.0000
 20
0.0000
 30
0.0000
 40
0.1000
 41
0.1000
 70
0
  0
VERTEX
  8
0
 10
0.2379
 20
-0.4500
 30
0.0000
  0
VERTEX
  8
0
 10
-0.2379
 20
-0.4500
 30
0.0000
  0
SEQEND
  8
0
  0
POLYLINE
  8
0
 66
1
 10
0.0000
 20
0.0000
 30
0.0000
 40
0.0500
 41
0.0500
 70
0
  0
VERTEX
  8
0
 10
-0.2379
 20
-0.4250
 30
0.0000
 42
1.0000
  0
VERTEX
  8
0
 10
-0.2379
 20
-0.4750
 30
0.0000
  0
SEQEND
  8
0
  0
POLYLINE
  8
0
 66
1
 10
0.0000
 20
0.0000
 30
0.0000
 40
0.0500
 41
0.0500
 70
0
  0
VERTEX
  8
0
 10
0.2379
 20
-0.4750
 30
0.0000
 42
1.0000
  0
VERTEX
  8
0
 10
0.2379
 20
-0.4250
 30
0.0000
  0
SEQEND
  8
0
  0
POLYLINE
  8
0
 66
1
 10
0.0000
 20
0.0000
 30
0.0000
 40
0.1000
 41
0.1000
 70
0
  0
VERTEX
  8
0
 10
-0.4500
 20
-0.2379
 30
0.0000
  0
VERTEX
  8
0
 10
-0.4500
 20
0.2379
 30
0.0000
  0
SEQEND
  8
0
  0
POLYLINE
  8
0
 66
1
 10
0.0000
 20
0.0000
 30
0.0000
 40
0.0500
 41
0.0500
 70
0
  0
VERTEX
  8
0
 10
-0.4250
 20
0.2379
 30
0.0000
 42
1.0000
  0
VERTEX
  8
0
 10
-0.4750
 20
0.2379
 30
0.0000
  0
SEQEND
  8
0
  0
POLYLINE
  8
0
 66
1
 10
0.0000
 20
0.0000
 30
0.0000
 40
0.0500
 41
0.0500
 70
0
  0
VERTEX
  8
0
 10
-0.4750
 20
-0.2379
 30
0.0000
 42
1.0000
  0
VERTEX
  8
0
 10
-0.4250
 20
-0.2379
 30
0.0000
  0
SEQEND
  8
0
  0
ENDBLK
  8
0
  0
BLOCK
  8
0
  2
OCTAGONV
 70
64
 10
0.0000
 20
0.0000
 30
0.0000
  3
OCTAGONV
  0
POLYLINE
  8
0
 66
1
 10
0.0000
 20
0.0000
 30
0.0000
 40
0.5000
 41
0.5000
 70
0
  0
VERTEX
  8
0
 10
-0.2500
 20
-0.1036
 30
0.0000
  0
VERTEX
  8
0
 10
-0.2500
 20
0.1036
 30
0.0000
  0
VERTEX
  8
0
 10
-0.1036
 20
0.2500
 30
0.0000
  0
VERTEX
  8
0
 10
0.1036
 20
0.2500
 30
0.0000
  0
VERTEX
  8
0
 10
0.2500
 20
0.1036
 30
0.0000
  0
VERTEX
  8
0
 10
0.2500
 20
-0.1036
 30
0.0000
  0
VERTEX
  8
0
 10
0.1036
 20
-0.2500
 30
0.0000
  0
VERTEX
  8
0
 10
-0.1036
 20
-0.2500
 30
0.0000
  0
VERTEX
  8
0
 10
-0.2500
 20
-0.1036
 30
0.0000
  0
VERTEX
  8
0
 10
-0.2500
 20
0.1036
 30
0.0000
  0
SEQEND
  8
0
  0
ENDBLK
  8
0
  0
BLOCK
  8
0
  2
SQUAREV
 70
64
 10
0.0000
 20
0.0000
 30
0.0000
  3
SQUAREV
  0
SOLID
  8
0
 10
-0.5000
 20
-0.5000
 30
0.0000
 11
0.5000
 21
-0.5000
 31
0.0000
 12
-0.5000
 22
0.5000
 32
0.0000
 13
0.5000
 23
0.5000
 33
0.0000
  0
ENDBLK
  8
0
  0
BLOCK
  8
0
  2
ROUNDV
 70
64
 10
0.0000
 20
0.0000
 30
0.0000
  3
ROUNDV
  0
POLYLINE
  8
0
 66
1
 10
0.0000
 20
0.0000
 30
0.0000
 40
0.5000
 41
0.5000
 70
0
  0
VERTEX
  8
0
 10
0.0000
 20
-0.2500
 30
0.0000
 42
1.0000
  0
VERTEX
  8
0
 10
0.0000
 20
0.2500
 30
0.0000
 42
1.0000
  0
VERTEX
  8
0
 10
0.0000
 20
-0.2500
 30
0.0000
  0
SEQEND
  8
0
  0
ENDBLK
  8
0
  0
BLOCK
  8
0
  2
ANNULUSV
 70
64
 10
0.0000
 20
0.0000
 30
0.0000
  3
ANNULUSV
  0
POLYLINE
  8
0
 66
1
 10
0.0000
 20
0.0000
 30
0.0000
 40
0.5000
 41
0.5000
 70
0
  0
VERTEX
  8
0
 10
0.0000
 20
-0.2500
 30
0.0000
 42
1.0000
  0
VERTEX
  8
0
 10
0.0000
 20
0.2500
 30
0.0000
 42
1.0000
  0
VERTEX
  8
0
 10
0.0000
 20
-0.2500
 30
0.0000
  0
SEQEND
  8
0
  0
ENDBLK
  8
0
  0
BLOCK
  8
0
  2
THERMALV
 70
64
 10
0.0000
 20
0.0000
 30
0.0000
  3
THERMALV
  0
POLYLINE
  8
0
 66
1
 10
0.0000
 20
0.0000
 30
0.0000
 40
0.1000
 41
0.1000
 70
0
  0
VERTEX
  8
0
 10
-0.2379
 20
0.4500
 30
0.0000
  0
VERTEX
  8
0
 10
0.2379
 20
0.4500
 30
0.0000
  0
SEQEND
  8
0
  0
POLYLINE
  8
0
 66
1
 10
0.0000
 20
0.0000
 30
0.0000
 40
0.0500
 41
0.0500
 70
0
  0
VERTEX
  8
0
 10
0.2379
 20
0.4250
 30
0.0000
 42
1.0000
  0
VERTEX
  8
0
 10
0.2379
 20
0.4750
 30
0.0000
  0
SEQEND
  8
0
  0
POLYLINE
  8
0
 66
1
 10
0.0000
 20
0.0000
 30
0.0000
 40
0.0500
 41
0.0500
 70
0
  0
VERTEX
  8
0
 10
-0.2379
 20
0.4750
 30
0.0000
 42
1.0000
  0
VERTEX
  8
0
 10
-0.2379
 20
0.4250
 30
0.0000
  0
SEQEND
  8
0
  0
POLYLINE
  8
0
 66
1
 10
0.0000
 20
0.0000
 30
0.0000
 40
0.1000
 41
0.1000
 70
0
  0
VERTEX
  8
0
 10
0.4500
 20
0.2379
 30
0.0000
  0
VERTEX
  8
0
 10
0.4500
 20
-0.2379
 30
0.0000
  0
SEQEND
  8
0
  0
POLYLINE
  8
0
 66
1
 10
0.0000
 20
0.0000
 30
0.0000
 40
0.0500
 41
0.0500
 70
0
  0
VERTEX
  8
0
 10
0.4250
 20
-0.2379
 30
0.0000
 42
1.0000
  0
VERTEX
  8
0
 10
0.4750
 20
-0.2379
 30
0.0000
  0
SEQEND
  8
0
  0
POLYLINE
  8
0
 66
1
 10
0.0000
 20
0.0000
 30
0.0000
 40
0.0500
 41
0.0500
 70
0
  0
VERTEX
  8
0
 10
0.4750
 20
0.2379
 30
0.0000
 42
1.0000
  0
VERTEX
  8
0
 10
0.4250
 20
0.2379
 30
0.0000
  0
SEQEND
  8
0
  0
POLYLINE
  8
0
 66
1
 10
0.0000
 20
0.0000
 30
0.0000
 40
0.1000
 41
0.1000
 70
0
  0
VERTEX
  8
0
 10
0.2379
 20
-0.4500
 30
0.0000
  0
VERTEX
  8
0
 10
-0.2379
 20
-0.4500
 30
0.0000
  0
SEQEND
  8
0
  0
POLYLINE
  8
0
 66
1
 10
0.0000
 20
0.0000
 30
0.0000
 40
0.0500
 41
0.0500
 70
0
  0
VERTEX
  8
0
 10
-0.2379
 20
-0.4250
 30
0.0000
 42
1.0000
  0
VERTEX
  8
0
 10
-0.2379
 20
-0.4750
 30
0.0000
  0
SEQEND
  8
0
  0
POLYLINE
  8
0
 66
1
 10
0.0000
 20
0.0000
 30
0.0000
 40
0.0500
 41
0.0500
 70
0
  0
VERTEX
  8
0
 10
0.2379
 20
-0.4750
 30
0.0000
 42
1.0000
  0
VERTEX
  8
0
 10
0.2379
 20
-0.4250
 30
0.0000
  0
SEQEND
  8
0
  0
POLYLINE
  8
0
 66
1
 10
0.0000
 20
0.0000
 30
0.0000
 40
0.1000
 41
0.1000
 70
0
  0
VERTEX
  8
0
 10
-0.4500
 20
-0.2379
 30
0.0000
  0
VERTEX
  8
0
 10
-0.4500
 20
0.2379
 30
0.0000
  0
SEQEND
  8
0
  0
POLYLINE
  8
0
 66
1
 10
0.0000
 20
0.0000
 30
0.0000
 40
0.0500
 41
0.0500
 70
0
  0
VERTEX
  8
0
 10
-0.4250
 20
0.2379
 30
0.0000
 42
1.0000
  0
VERTEX
  8
0
 10
-0.4750
 20
0.2379
 30
0.0000
  0
SEQEND
  8
0
  0
POLYLINE
  8
0
 66
1
 10
0.0000
 20
0.0000
 30
0.0000
 40
0.0500
 41
0.0500
 70
0
  0
VERTEX
  8
0
 10
-0.4750
 20
-0.2379
 30
0.0000
 42
1.0000
  0
VERTEX
  8
0
 10
-0.4250
 20
-0.2379
 30
0.0000
  0
SEQEND
  8
0
  0
ENDBLK
  8
0
  0
ENDSEC
  0
SECTION
  2
ENTITIES
  0
POLYLINE
  8
20
 66
1
 10
0.0000
 20
0.0000
 30
0.0000
 40
0.1524
 41
0.1524
 70
0
  0
VERTEX
  8
20
 10
35.0000
 20
27.0000
 30
0.0000
  0
VERTEX
  8
20
 10
51.2100
 20
46.2600
 30
0.0000
  0
SEQEND
  8
0
  0
POLYLINE
  8
20
 66
1
 10
0.0000
 20
0.0000
 30
0.0000
 40
0.0762
 41
0.0762
 70
0
  0
VERTEX
  8
20
 10
51.2391
 20
46.2355
 30
0.0000
 42
1.0000
  0
VERTEX
  8
20
 10
51.1809
 20
46.2845
 30
0.0000
  0
SEQEND
  8
0
  0
POLYLINE
  8
20
 66
1
 10
0.0000
 20
0.0000
 30
0.0000
 40
0.0762
 41
0.0762
 70
0
  0
VERTEX
  8
20
 10
34.9709
 20
27.0245
 30
0.0000
 42
1.0000
  0
VERTEX
  8
20
 10
35.0291
 20
26.9755
 30
0.0000
  0
SEQEND
  8
0
  0
POLYLINE
  8
20
 66
1
 10
0.0000
 20
0.0000
 30
0.0000
 40
0.1524
 41
0.1524
 70
0
  0
VERTEX
  8
20
 10
28.0000
 20
35.0000
 30
0.0000
  0
VERTEX
  8
20
 10
46.2600
 20
51.2100
 30
0.0000
  0
SEQEND
  8
0
  0
POLYLINE
  8
20
 66
1
 10
0.0000
 20
0.0000
 30
0.0000
 40
0.0762
 41
0.0762
 70
0
  0
VERTEX
  8
20
 10
46.2853
 20
51.1815
 30
0.0000
 42
1.0000
  0
VERTEX
  8
20
 10
46.2347
 20
51.2385
 30
0.0000
  0
SEQEND
  8
0
  0
POLYLINE
  8
20
 66
1
 10
0.0000
 20
0.0000
 30
0.0000
 40
0.0762
 41
0.0762
 70
0
  0
VERTEX
  8
20
 10
27.9747
 20
35.0285
 30
0.0000
 42
1.0000
  0
VERTEX
  8
20
 10
28.0253
 20
34.9715
 30
0.0000
  0
SEQEND
  8
0
  0
POLYLINE
  8
20
 66
1
 10
0.0000
 20
0.0000
 30
0.0000
 40
0.1524
 41
0.1524
 70
0
  0
VERTEX
  8
20
 10
46.2600
 20
51.2100
 30
0.0000
 42
0.1144
  0
VERTEX
  8
20
 10
48.0000
 20
54.0000
 30
0.0000
  0
SEQEND
  8
0
  0
POLYLINE
  8
20
 66
1
 10
0.0000
 20
0.0000
 30
0.0000
 40
0.0762
 41
0.0762
 70
0
  0
VERTEX
  8
20
 10
46.2331
 20
51.2369
 30
0.0000
 42
1.0000
  0
VERTEX
  8
20
 10
46.2869
 20
51.1831
 30
0.0000
  0
SEQEND
  8
0
  0
POLYLINE
  8
20
 66
1
 10
0.0000
 20
0.0000
 30
0.0000
 40
0.0762
 41
0.0762
 70
0
  0
VERTEX
  8
20
 10
48.0360
 20
53.9877
 30
0.0000
 42
1.0000
  0
VERTEX
  8
20
 10
47.9640
 20
54.0123
 30
0.0000
  0
SEQEND
  8
0
  0
POLYLINE
  8
20
 66
1
 10
0.0000
 20
0.0000
 30
0.0000
 40
0.1524
 41
0.1524
 70
0
  0
VERTEX
  8
20
 10
48.0000
 20
54.0000
 30
0.0000
  0
VERTEX
  8
20
 10
49.0000
 20
59.0000
 30
0.0000
  0
SEQEND
  8
0
  0
POLYLINE
  8
20
 66
1
 10
0.0000
 20
0.0000
 30
0.0000
 40
0.0762
 41
0.0762
 70
0
  0
VERTEX
  8
20
 10
49.0374
 20
58.9925
 30
0.0000
 42
1.0000
  0
VERTEX
  8
20
 10
48.9626
 20
59.0075
 30
0.0000
  0
SEQEND
  8
0
  0
POLYLINE
  8
20
 66
1
 10
0.0000
 20
0.0000
 30
0.0000
 40
0.0762
 41
0.0762
 70
0
  0
VERTEX
  8
20
 10
47.9626
 20
54.0075
 30
0.0000
 42
1.0000
  0
VERTEX
  8
20
 10
48.0374
 20
53.9925
 30
0.0000
  0
SEQEND
  8
0
  0
POLYLINE
  8
20
 66
1
 10
0.0000
 20
0.0000
 30
0.0000
 40
0.1524
 41
0.1524
 70
0
  0
VERTEX
  8
20
 10
54.0000
 20
48.0000
 30
0.0000
 42
0.1144
  0
VERTEX
  8
20
 10
51.2100
 20
46.2600
 30
0.0000
  0
SEQEND
  8
0
  0
POLYLINE
  8
20
 66
1
 10
0.0000
 20
0.0000
 30
0.0000
 40
0.0762
 41
0.0762
 70
0
  0
VERTEX
  8
20
 10
54.0123
 20
47.9640
 30
0.0000
 42
1.0000
  0
VERTEX
  8
20
 10
53.9877
 20
48.0360
 30
0.0000
  0
SEQEND
  8
0
  0
POLYLINE
  8
20
 66
1
 10
0.0000
 20
0.0000
 30
0.0000
 40
0.0762
 41
0.0762
 70
0
  0
VERTEX
  8
20
 10
51.1831
 20
46.2869
 30
0.0000
 42
1.0000
  0
VERTEX
  8
20
 10
51.2369
 20
46.2331
 30
0.0000
  0
SEQEND
  8
0
  0
POLYLINE
  8
20
 66
1
 10
0.0000
 20
0.0000
 30
0.0000
 40
0.1524
 41
0.1524
 70
0
  0
VERTEX
  8
20
 10
54.0000
 20
48.0000
 30
0.0000
  0
VERTEX
  8
20
 10
59.0000
 20
49.0000
 30
0.0000
  0
SEQEND
  8
0
  0
POLYLINE
  8
20
 66
1
 10
0.0000
 20
0.0000
 30
0.0000
 40
0.0762
 41
0.0762
 70
0
  0
VERTEX
  8
20
 10
59.0075
 20
48.9626
 30
0.0000
 42
1.0000
  0
VERTEX
  8
20
 10
58.9925
 20
49.0374
 30
0.0000
  0
SEQEND
  8
0
  0
POLYLINE
  8
20
 66
1
 10
0.0000
 20
0.0000
 30
0.0000
 40
0.0762
 41
0.0762
 70
0
  0
VERTEX
  8
20
 10
53.9925
 20
48.0374
 30
0.0000
 42
1.0000
  0
VERTEX
  8
20
 10
54.0075
 20
47.9626
 30
0.0000
  0
SEQEND
  8
0
  0
POLYLINE
  8
20
 66
1
 10
0.0000
 20
0.0000
 30
0.0000
 40
0.1524
 41
0.1524
 70
0
  0
VERTEX
  8
20
 10
59.0000
 20
49.0000
 30
0.0000
 42
0.5325
  0
VERTEX
  8
20
 10
64.0000
 20
61.0000
 30
0.0000
  0
SEQEND
  8
0
  0
POLYLINE
  8
20
 66
1
 10
0.0000
 20
0.0000
 30
0.0000
 40
0.0762
 41
0.0762
 70
0
  0
VERTEX
  8
20
 10
58.9925
 20
49.0374
 30
0.0000
 42
1.0000
  0
VERTEX
  8
20
 10
59.0075
 20
48.9626
 30
0.0000
  0
SEQEND
  8
0
  0
POLYLINE
  8
20
 66
1
 10
0.0000
 20
0.0000
 30
0.0000
 40
0.0762
 41
0.0762
 70
0
  0
VERTEX
  8
20
 10
64.0318
 20
61.0210
 30
0.0000
 42
1.0000
  0
VERTEX
  8
20
 10
63.9682
 20
60.9790
 30
0.0000
  0
SEQEND
  8
0
  0
POLYLINE
  8
20
 66
1
 10
0.0000
 20
0.0000
 30
0.0000
 40
0.1524
 41
0.1524
 70
0
  0
VERTEX
  8
20
 10
61.0000
 20
64.0000
 30
0.0000
 42
0.5325
  0
VERTEX
  8
20
 10
49.0000
 20
59.0000
 30
0.0000
  0
SEQEND
  8
0
  0
POLYLINE
  8
20
 66
1
 10
0.0000
 20
0.0000
 30
0.0000
 40
0.0762
 41
0.0762
 70
0
  0
VERTEX
  8
20
 10
60.9790
 20
63.9682
 30
0.0000
 42
1.0000
  0
VERTEX
  8
20
 10
61.0210
 20
64.0318
 30
0.0000
  0
SEQEND
  8
0
  0
POLYLINE
  8
20
 66
1
 10
0.0000
 20
0.0000
 30
0.0000
 40
0.0762
 41
0.0762
 70
0
  0
VERTEX
  8
20
 10
48.9626
 20
59.0075
 30
0.0000
 42
1.0000
  0
VERTEX
  8
20
 10
49.0374
 20
58.9925
 30
0.0000
  0
SEQEND
  8
0
  0
POLYLINE
  8
20
 66
1
 10
0.0000
 20
0.0000
 30
0.0000
 40
0.1524
 41
0.1524
 70
0
  0
VERTEX
  8
20
 10
61.0000
 20
64.0000
 30
0.0000
  0
VERTEX
  8
20
 10
58.0000
 20
61.0000
 30
0.0000
  0
SEQEND
  8
0
  0
POLYLINE
  8
20
 66
1
 10
0.0000
 20
0.0000
 30
0.0000
 40
0.0762
 41
0.0762
 70
0
  0
VERTEX
  8
20
 10
57.9731
 20
61.0269
 30
0.0000
 42
1.0000
  0
VERTEX
  8
20
 10
58.0269
 20
60.9731
 30
0.0000
  0
SEQEND
  8
0
  0
POLYLINE
  8
20
 66
1
 10
0.0000
 20
0.0000
 30
0.0000
 40
0.0762
 41
0.0762
 70
0
  0
VERTEX
  8
20
 10
61.0269
 20
63.9731
 30
0.0000
 42
1.0000
  0
VERTEX
  8
20
 10
60.9731
 20
64.0269
 30
0.0000
  0
SEQEND
  8
0
  0
POLYLINE
  8
20
 66
1
 10
0.0000
 20
0.0000
 30
0.0000
 40
0.1524
 41
0.1524
 70
0
  0
VERTEX
  8
20
 10
64.0000
 20
61.0000
 30
0.0000
  0
VERTEX
  8
20
 10
61.0000
 20
58.0000
 30
0.0000
  0
SEQEND
  8
0
  0
POLYLINE
  8
20
 66
1
 10
0.0000
 20
0.0000
 30
0.0000
 40
0.0762
 41
0.0762
 70
0
  0
VERTEX
  8
20
 10
60.9731
 20
58.0269
 30
0.0000
 42
1.0000
  0
VERTEX
  8
20
 10
61.0269
 20
57.9731
 30
0.0000
  0
SEQEND
  8
0
  0
POLYLINE
  8
20
 66
1
 10
0.0000
 20
0.0000
 30
0.0000
 40
0.0762
 41
0.0762
 70
0
  0
VERTEX
  8
20
 10
64.0269
 20
60.9731
 30
0.0000
 42
1.0000
  0
VERTEX
  8
20
 10
63.9731
 20
61.0269
 30
0.0000
  0
SEQEND
  8
0
  0
POLYLINE
  8
20
 66
1
 10
0.0000
 20
0.0000
 30
0.0000
 40
0.1524
 41
0.1524
 70
0
  0
VERTEX
  8
20
 10
22.0000
 20
33.0000
 30
0.0000
 42
0.1926
  0
VERTEX
  8
20
 10
28.0000
 20
35.0000
 30
0.0000
  0
SEQEND
  8
0
  0
POLYLINE
  8
20
 66
1
 10
0.0000
 20
0.0000
 30
0.0000
 40
0.0762
 41
0.0762
 70
0
  0
VERTEX
  8
20
 10
22.0022
 20
33.0380
 30
0.0000
 42
1.0000
  0
VERTEX
  8
20
 10
21.9978
 20
32.9620
 30
0.0000
  0
SEQEND
  8
0
  0
POLYLINE
  8
20
 66
1
 10
0.0000
 20
0.0000
 30
0.0000
 40
0.0762
 41
0.0762
 70
0
  0
VERTEX
  8
20
 10
28.0246
 20
34.9709
 30
0.0000
 42
1.0000
  0
VERTEX
  8
20
 10
27.9754
 20
35.0291
 30
0.0000
  0
SEQEND
  8
0
  0
POLYLINE
  8
20
 66
1
 10
0.0000
 20
0.0000
 30
0.0000
 40
0.1524
 41
0.1524
 70
0
  0
VERTEX
  8
20
 10
35.0000
 20
27.0000
 30
0.0000
 42
0.2053
  0
VERTEX
  8
20
 10
33.0000
 20
20.0000
 30
0.0000
  0
SEQEND
  8
0
  0
POLYLINE
  8
20
 66
1
 10
0.0000
 20
0.0000
 30
0.0000
 40
0.0762
 41
0.0762
 70
0
  0
VERTEX
  8
20
 10
35.0295
 20
26.9759
 30
0.0000
 42
1.0000
  0
VERTEX
  8
20
 10
34.9705
 20
27.0241
 30
0.0000
  0
SEQEND
  8
0
  0
POLYLINE
  8
20
 66
1
 10
0.0000
 20
0.0000
 30
0.0000
 40
0.0762
 41
0.0762
 70
0
  0
VERTEX
  8
20
 10
32.9622
 20
19.9952
 30
0.0000
 42
1.0000
  0
VERTEX
  8
20
 10
33.0378
 20
20.0048
 30
0.0000
  0
SEQEND
  8
0
  0
POLYLINE
  8
20
 66
1
 10
0.0000
 20
0.0000
 30
0.0000
 40
0.1524
 41
0.1524
 70
0
  0
VERTEX
  8
20
 10
33.0000
 20
20.0000
 30
0.0000
  0
VERTEX
  8
20
 10
33.0000
 20
18.0000
 30
0.0000
  0
SEQEND
  8
0
  0
POLYLINE
  8
20
 66
1
 10
0.0000
 20
0.0000
 30
0.0000
 40
0.0762
 41
0.0762
 70
0
  0
VERTEX
  8
20
 10
32.9619
 20
18.0000
 30
0.0000
 42
1.0000
  0
VERTEX
  8
20
 10
33.0381
 20
18.0000
 30
0.0000
  0
SEQEND
  8
0
  0
POLYLINE
  8
20
 66
1
 10
0.0000
 20
0.0000
 30
0.0000
 40
0.0762
 41
0.0762
 70
0
  0
VERTEX
  8
20
 10
33.0381
 20
20.0000
 30
0.0000
 42
1.0000
  0
VERTEX
  8
20
 10
32.9619
 20
20.0000
 30
0.0000
  0
SEQEND
  8
0
  0
POLYLINE
  8
20
 66
1
 10
0.0000
 20
0.0000
 30
0.0000
 40
0.1524
 41
0.1524
 70
0
  0
VERTEX
  8
20
 10
33.0000
 20
-6.0000
 30
0.0000
  0
VERTEX
  8
20
 10
33.0000
 20
-21.0000
 30
0.0000
  0
SEQEND
  8
0
  0
POLYLINE
  8
20
 66
1
 10
0.0000
 20
0.0000
 30
0.0000
 40
0.0762
 41
0.0762
 70
0
  0
VERTEX
  8
20
 10
32.9619
 20
-21.0000
 30
0.0000
 42
1.0000
  0
VERTEX
  8
20
 10
33.0381
 20
-21.0000
 30
0.0000
  0
SEQEND
  8
0
  0
POLYLINE
  8
20
 66
1
 10
0.0000
 20
0.0000
 30
0.0000
 40
0.0762
 41
0.0762
 70
0
  0
VERTEX
  8
20
 10
33.0381
 20
-6.0000
 30
0.0000
 42
1.0000
  0
VERTEX
  8
20
 10
32.9619
 20
-6.0000
 30
0.0000
  0
SEQEND
  8
0
  0
POLYLINE
  8
20
 66
1
 10
0.0000
 20
0.0000
 30
0.0000
 40
0.1524
 41
0.1524
 70
0
  0
VERTEX
  8
20
 10
-35.0000
 20
-27.0000
 30
0.0000
  0
VERTEX
  8
20
 10
-51.2100
 20
-46.2600
 30
0.0000
  0
SEQEND
  8
0
  0
POLYLINE
  8
20
 66
1
 10
0.0000
 20
0.0000
 30
0.0000
 40
0.0762
 41
0.0762
 70
0
  0
VERTEX
  8
20
 10
-51.2391
 20
-46.2355
 30
0.0000
 42
1.0000
  0
VERTEX
  8
20
 10
-51.1809
 20
-46.2845
 30
0.0000
  0
SEQEND
  8
0
  0
POLYLINE
  8
20
 66
1
 10
0.0000
 20
0.0000
 30
0.0000
 40
0.0762
 41
0.0762
 70
0
  0
VERTEX
  8
20
 10
-34.9709
 20
-27.0245
 30
0.0000
 42
1.0000
  0
VERTEX
  8
20
 10
-35.0291
 20
-26.9755
 30
0.0000
  0
SEQEND
  8
0
  0
POLYLINE
  8
20
 66
1
 10
0.0000
 20
0.0000
 30
0.0000
 40
0.1524
 41
0.1524
 70
0
  0
VERTEX
  8
20
 10
-28.0000
 20
-35.0000
 30
0.0000
  0
VERTEX
  8
20
 10
-46.2600
 20
-51.2100
 30
0.0000
  0
SEQEND
  8
0
  0
POLYLINE
  8
20
 66
1
 10
0.0000
 20
0.0000
 30
0.0000
 40
0.0762
 41
0.0762
 70
0
  0
VERTEX
  8
20
 10
-46.2853
 20
-51.1815
 30
0.0000
 42
1.0000
  0
VERTEX
  8
20
 10
-46.2347
 20
-51.2385
 30
0.0000
  0
SEQEND
  8
0
  0
POLYLINE
  8
20
 66
1
 10
0.0000
 20
0.0000
 30
0.0000
 40
0.0762
 41
0.0762
 70
0
  0
VERTEX
  8
20
 10
-27.9747
 20
-35.0285
 30
0.0000
 42
1.0000
  0
VERTEX
  8
20
 10
-28.0253
 20
-34.9715
 30
0.0000
  0
SEQEND
  8
0
  0
POLYLINE
  8
20
 66
1
 10
0.0000
 20
0.0000
 30
0.0000
 40
0.1524
 41
0.1524
 70
0
  0
VERTEX
  8
20
 10
-46.2600
 20
-51.2100
 30
0.0000
 42
0.1144
  0
VERTEX
  8
20
 10
-48.0000
 20
-54.0000
 30
0.0000
  0
SEQEND
  8
0
  0
POLYLINE
  8
20
 66
1
 10
0.0000
 20
0.0000
 30
0.0000
 40
0.0762
 41
0.0762
 70
0
  0
VERTEX
  8
20
 10
-46.2331
 20
-51.2369
 30
0.0000
 42
1.0000
  0
VERTEX
  8
20
 10
-46.2869
 20
-51.1831
 30
0.0000
  0
SEQEND
  8
0
  0
POLYLINE
  8
20
 66
1
 10
0.0000
 20
0.0000
 30
0.0000
 40
0.0762
 41
0.0762
 70
0
  0
VERTEX
  8
20
 10
-48.0360
 20
-53.9877
 30
0.0000
 42
1.0000
  0
VERTEX
  8
20
 10
-47.9640
 20
-54.0123
 30
0.0000
  0
SEQEND
  8
0
  0
POLYLINE
  8
20
 66
1
 10
0.0000
 20
0.0000
 30
0.0000
 40
0.1524
 41
0.1524
 70
0
  0
VERTEX
  8
20
 10
-48.0000
 20
-54.0000
 30
0.0000
  0
VERTEX
  8
20
 10
-49.0000
 20
-59.0000
 30
0.0000
  0
SEQEND
  8
0
  0
POLYLINE
  8
20
 66
1
 10
0.0000
 20
0.0000
 30
0.0000
 40
0.0762
 41
0.0762
 70
0
  0
VERTEX
  8
20
 10
-49.0374
 20
-58.9925
 30
0.0000
 42
1.0000
  0
VERTEX
  8
20
 10
-48.9626
 20
-59.0075
 30
0.0000
  0
SEQEND
  8
0
  0
POLYLINE
  8
20
 66
1
 10
0.0000
 20
0.0000
 30
0.0000
 40
0.0762
 41
0.0762
 70
0
  0
VERTEX
  8
20
 10
-47.9626
 20
-54.0075
 30
0.0000
 42
1.0000
  0
VERTEX
  8
20
 10
-48.0374
 20
-53.9925
 30
0.0000
  0
SEQEND
  8
0
  0
POLYLINE
  8
20
 66
1
 10
0.0000
 20
0.0000
 30
0.0000
 40
0.1524
 41
0.1524
 70
0
  0
VERTEX
  8
20
 10
-54.0000
 20
-48.0000
 30
0.0000
 42
0.1144
  0
VERTEX
  8
20
 10
-51.2100
 20
-46.2600
 30
0.0000
  0
SEQEND
  8
0
  0
POLYLINE
  8
20
 66
1
 10
0.0000
 20
0.0000
 30
0.0000
 40
0.0762
 41
0.0762
 70
0
  0
VERTEX
  8
20
 10
-54.0123
 20
-47.9640
 30
0.0000
 42
1.0000
  0
VERTEX
  8
20
 10
-53.9877
 20
-48.0360
 30
0.0000
  0
SEQEND
  8
0
  0
POLYLINE
  8
20
 66
1
 10
0.0000
 20
0.0000
 30
0.0000
 40
0.0762
 41
0.0762
 70
0
  0
VERTEX
  8
20
 10
-51.1831
 20
-46.2869
 30
0.0000
 42
1.0000
  0
VERTEX
  8
20
 10
-51.2369
 20
-46.2331
 30
0.0000
  0
SEQEND
  8
0
  0
POLYLINE
  8
20
 66
1
 10
0.0000
 20
0.0000
 30
0.0000
 40
0.1524
 41
0.1524
 70
0
  0
VERTEX
  8
20
 10
-54.0000
 20
-48.0000
 30
0.0000
  0
VERTEX
  8
20
 10
-59.0000
 20
-49.0000
 30
0.0000
  0
SEQEND
  8
0
  0
POLYLINE
  8
20
 66
1
 10
0.0000
 20
0.0000
 30
0.0000
 40
0.0762
 41
0.0762
 70
0
  0
VERTEX
  8
20
 10
-59.0075
 20
-48.9626
 30
0.0000
 42
1.0000
  0
VERTEX
  8
20
 10
-58.9925
 20
-49.0374
 30
0.0000
  0
SEQEND
  8
0
  0
POLYLINE
  8
20
 66
1
 10
0.0000
 20
0.0000
 30
0.0000
 40
0.0762
 41
0.0762
 70
0
  0
VERTEX
  8
20
 10
-53.9925
 20
-48.0374
 30
0.0000
 42
1.0000
  0
VERTEX
  8
20
 10
-54.0075
 20
-47.9626
 30
0.0000
  0
SEQEND
  8
0
  0
POLYLINE
  8
20
 66
1
 10
0.0000
 20
0.0000
 30
0.0000
 40
0.1524
 41
0.1524
 70
0
  0
VERTEX
  8
20
 10
-59.0000
 20
-49.0000
 30
0.0000
 42
0.5325
  0
VERTEX
  8
20
 10
-64.0000
 20
-61.0000
 30
0.0000
  0
SEQEND
  8
0
  0
POLYLINE
  8
20
 66
1
 10
0.0000
 20
0.0000
 30
0.0000
 40
0.0762
 41
0.0762
 70
0
  0
VERTEX
  8
20
 10
-58.9925
 20
-49.0374
 30
0.0000
 42
1.0000
  0
VERTEX
  8
20
 10
-59.0075
 20
-48.9626
 30
0.0000
  0
SEQEND
  8
0
  0
POLYLINE
  8
20
 66
1
 10
0.0000
 20
0.0000
 30
0.0000
 40
0.0762
 41
0.0762
 70
0
  0
VERTEX
  8
20
 10
-64.0318
 20
-61.0210
 30
0.0000
 42
1.0000
  0
VERTEX
  8
20
 10
-63.9682
 20
-60.9790
 30
0.0000
  0
SEQEND
  8
0
  0
POLYLINE
  8
20
 66
1
 10
0.0000
 20
0.0000
 30
0.0000
 40
0.1524
 41
0.1524
 70
0
  0
VERTEX
  8
20
 10
-61.0000
 20
-64.0000
 30
0.0000
 42
0.5325
  0
VERTEX
  8
20
 10
-49.0000
 20
-59.0000
 30
0.0000
  0
SEQEND
  8
0
  0
POLYLINE
  8
20
 66
1
 10
0.0000
 20
0.0000
 30
0.0000
 40
0.0762
 41
0.0762
 70
0
  0
VERTEX
  8
20
 10
-60.9790
 20
-63.9682
 30
0.0000
 42
1.0000
  0
VERTEX
  8
20
 10
-61.0210
 20
-64.0318
 30
0.0000
  0
SEQEND
  8
0
  0
POLYLINE
  8
20
 66
1
 10
0.0000
 20
0.0000
 30
0.0000
 40
0.0762
 41
0.0762
 70
0
  0
VERTEX
  8
20
 10
-48.9626
 20
-59.0075
 30
0.0000
 42
1.0000
  0
VERTEX
  8
20
 10
-49.0374
 20
-58.9925
 30
0.0000
  0
SEQEND
  8
0
  0
POLYLINE
  8
20
 66
1
 10
0.0000
 20
0.0000
 30
0.0000
 40
0.1524
 41
0.1524
 70
0
  0
VERTEX
  8
20
 10
-61.0000
 20
-64.0000
 30
0.0000
  0
VERTEX
  8
20
 10
-58.0000
 20
-61.0000
 30
0.0000
  0
SEQEND
  8
0
  0
POLYLINE
  8
20
 66
1
 10
0.0000
 20
0.0000
 30
0.0000
 40
0.0762
 41
0.0762
 70
0
  0
VERTEX
  8
20
 10
-57.9731
 20
-61.0269
 30
0.0000
 42
1.0000
  0
VERTEX
  8
20
 10
-58.0269
 20
-60.9731
 30
0.0000
  0
SEQEND
  8
0
  0
POLYLINE
  8
20
 66
1
 10
0.0000
 20
0.0000
 30
0.0000
 40
0.0762
 41
0.0762
 70
0
  0
VERTEX
  8
20
 10
-61.0269
 20
-63.9731
 30
0.0000
 42
1.0000
  0
VERTEX
  8
20
 10
-60.9731
 20
-64.0269
 30
0.0000
  0
SEQEND
  8
0
  0
POLYLINE
  8
20
 66
1
 10
0.0000
 20
0.0000
 30
0.0000
 40
0.1524
 41
0.1524
 70
0
  0
VERTEX
  8
20
 10
-64.0000
 20
-61.0000
 30
0.0000
  0
VERTEX
  8
20
 10
-61.0000
 20
-58.0000
 30
0.0000
  0
SEQEND
  8
0
  0
POLYLINE
  8
20
 66
1
 10
0.0000
 20
0.0000
 30
0.0000
 40
0.0762
 41
0.0762
 70
0
  0
VERTEX
  8
20
 10
-60.9731
 20
-58.0269
 30
0.0000
 42
1.0000
  0
VERTEX
  8
20
 10
-61.0269
 20
-57.9731
 30
0.0000
  0
SEQEND
  8
0
  0
POLYLINE
  8
20
 66
1
 10
0.0000
 20
0.0000
 30
0.0000
 40
0.0762
 41
0.0762
 70
0
  0
VERTEX
  8
20
 10
-64.0269
 20
-60.9731
 30
0.0000
 42
1.0000
  0
VERTEX
  8
20
 10
-63.9731
 20
-61.0269
 30
0.0000
  0
SEQEND
  8
0
  0
POLYLINE
  8
20
 66
1
 10
0.0000
 20
0.0000
 30
0.0000
 40
0.1524
 41
0.1524
 70
0
  0
VERTEX
  8
20
 10
-21.0000
 20
-33.0000
 30
0.0000
 42
0.1926
  0
VERTEX
  8
20
 10
-28.0000
 20
-35.0000
 30
0.0000
  0
SEQEND
  8
0
  0
POLYLINE
  8
20
 66
1
 10
0.0000
 20
0.0000
 30
0.0000
 40
0.0762
 41
0.0762
 70
0
  0
VERTEX
  8
20
 10
-21.0039
 20
-33.0379
 30
0.0000
 42
1.0000
  0
VERTEX
  8
20
 10
-20.9961
 20
-32.9621
 30
0.0000
  0
SEQEND
  8
0
  0
POLYLINE
  8
20
 66
1
 10
0.0000
 20
0.0000
 30
0.0000
 40
0.0762
 41
0.0762
 70
0
  0
VERTEX
  8
20
 10
-28.0233
 20
-34.9699
 30
0.0000
 42
1.0000
  0
VERTEX
  8
20
 10
-27.9767
 20
-35.0301
 30
0.0000
  0
SEQEND
  8
0
  0
POLYLINE
  8
20
 66
1
 10
0.0000
 20
0.0000
 30
0.0000
 40
0.1524
 41
0.1524
 70
0
  0
VERTEX
  8
20
 10
-35.0000
 20
-27.0000
 30
0.0000
 42
0.2053
  0
VERTEX
  8
20
 10
-33.0000
 20
-20.0000
 30
0.0000
  0
SEQEND
  8
0
  0
POLYLINE
  8
20
 66
1
 10
0.0000
 20
0.0000
 30
0.0000
 40
0.0762
 41
0.0762
 70
0
  0
VERTEX
  8
20
 10
-35.0295
 20
-26.9759
 30
0.0000
 42
1.0000
  0
VERTEX
  8
20
 10
-34.9705
 20
-27.0241
 30
0.0000
  0
SEQEND
  8
0
  0
POLYLINE
  8
20
 66
1
 10
0.0000
 20
0.0000
 30
0.0000
 40
0.0762
 41
0.0762
 70
0
  0
VERTEX
  8
20
 10
-32.9622
 20
-19.9952
 30
0.0000
 42
1.0000
  0
VERTEX
  8
20
 10
-33.0378
 20
-20.0048
 30
0.0000
  0
SEQEND
  8
0
  0
POLYLINE
  8
20
 66
1
 10
0.0000
 20
0.0000
 30
0.0000
 40
0.1524
 41
0.1524
 70
0
  0
VERTEX
  8
20
 10
21.0000
 20
-33.0000
 30
0.0000
  0
VERTEX
  8
20
 10
19.0000
 20
-33.0000
 30
0.0000
  0
SEQEND
  8
0
  0
POLYLINE
  8
20
 66
1
 10
0.0000
 20
0.0000
 30
0.0000
 40
0.0762
 41
0.0762
 70
0
  0
VERTEX
  8
20
 10
19.0000
 20
-32.9619
 30
0.0000
 42
1.0000
  0
VERTEX
  8
20
 10
19.0000
 20
-33.0381
 30
0.0000
  0
SEQEND
  8
0
  0
POLYLINE
  8
20
 66
1
 10
0.0000
 20
0.0000
 30
0.0000
 40
0.0762
 41
0.0762
 70
0
  0
VERTEX
  8
20
 10
21.0000
 20
-33.0381
 30
0.0000
 42
1.0000
  0
VERTEX
  8
20
 10
21.0000
 20
-32.9619
 30
0.0000
  0
SEQEND
  8
0
  0
POLYLINE
  8
20
 66
1
 10
0.0000
 20
0.0000
 30
0.0000
 40
0.1524
 41
0.1524
 70
0
  0
VERTEX
  8
20
 10
-19.0000
 20
-33.0000
 30
0.0000
  0
VERTEX
  8
20
 10
-21.0000
 20
-33.0000
 30
0.0000
  0
SEQEND
  8
0
  0
POLYLINE
  8
20
 66
1
 10
0.0000
 20
0.0000
 30
0.0000
 40
0.0762
 41
0.0762
 70
0
  0
VERTEX
  8
20
 10
-21.0000
 20
-32.9619
 30
0.0000
 42
1.0000
  0
VERTEX
  8
20
 10
-21.0000
 20
-33.0381
 30
0.0000
  0
SEQEND
  8
0
  0
POLYLINE
  8
20
 66
1
 10
0.0000
 20
0.0000
 30
0.0000
 40
0.0762
 41
0.0762
 70
0
  0
VERTEX
  8
20
 10
-19.0000
 20
-33.0381
 30
0.0000
 42
1.0000
  0
VERTEX
  8
20
 10
-19.0000
 20
-32.9619
 30
0.0000
  0
SEQEND
  8
0
  0
POLYLINE
  8
20
 66
1
 10
0.0000
 20
0.0000
 30
0.0000
 40
0.1524
 41
0.1524
 70
0
  0
VERTEX
  8
20
 10
-33.0000
 20
-20.0000
 30
0.0000
  0
VERTEX
  8
20
 10
-33.0000
 20
-6.0000
 30
0.0000
  0
SEQEND
  8
0
  0
POLYLINE
  8
20
 66
1
 10
0.0000
 20
0.0000
 30
0.0000
 40
0.0762
 41
0.0762
 70
0
  0
VERTEX
  8
20
 10
-32.9619
 20
-6.0000
 30
0.0000
 42
1.0000
  0
VERTEX
  8
20
 10
-33.0381
 20
-6.0000
 30
0.0000
  0
SEQEND
  8
0
  0
POLYLINE
  8
20
 66
1
 10
0.0000
 20
0.0000
 30
0.0000
 40
0.0762
 41
0.0762
 70
0
  0
VERTEX
  8
20
 10
-33.0381
 20
-20.0000
 30
0.0000
 42
1.0000
  0
VERTEX
  8
20
 10
-32.9619
 20
-20.0000
 30
0.0000
  0
SEQEND
  8
0
  0
POLYLINE
  8
20
 66
1
 10
0.0000
 20
0.0000
 30
0.0000
 40
0.1524
 41
0.1524
 70
0
  0
VERTEX
  8
20
 10
-33.0000
 20
18.0000
 30
0.0000
  0
VERTEX
  8
20
 10
-33.0000
 20
21.0000
 30
0.0000
  0
SEQEND
  8
0
  0
POLYLINE
  8
20
 66
1
 10
0.0000
 20
0.0000
 30
0.0000
 40
0.0762
 41
0.0762
 70
0
  0
VERTEX
  8
20
 10
-32.9619
 20
21.0000
 30
0.0000
 42
1.0000
  0
VERTEX
  8
20
 10
-33.0381
 20
21.0000
 30
0.0000
  0
SEQEND
  8
0
  0
POLYLINE
  8
20
 66
1
 10
0.0000
 20
0.0000
 30
0.0000
 40
0.0762
 41
0.0762
 70
0
  0
VERTEX
  8
20
 10
-33.0381
 20
18.0000
 30
0.0000
 42
1.0000
  0
VERTEX
  8
20
 10
-32.9619
 20
18.0000
 30
0.0000
  0
SEQEND
  8
0
  0
POLYLINE
  8
20
 66
1
 10
0.0000
 20
0.0000
 30
0.0000
 40
0.1524
 41
0.1524
 70
0
  0
VERTEX
  8
20
 10
28.0000
 20
-35.0000
 30
0.0000
  0
VERTEX
  8
20
 10
46.2600
 20
-51.2100
 30
0.0000
  0
SEQEND
  8
0
  0
POLYLINE
  8
20
 66
1
 10
0.0000
 20
0.0000
 30
0.0000
 40
0.0762
 41
0.0762
 70
0
  0
VERTEX
  8
20
 10
46.2347
 20
-51.2385
 30
0.0000
 42
1.0000
  0
VERTEX
  8
20
 10
46.2853
 20
-51.1815
 30
0.0000
  0
SEQEND
  8
0
  0
POLYLINE
  8
20
 66
1
 10
0.0000
 20
0.0000
 30
0.0000
 40
0.0762
 41
0.0762
 70
0
  0
VERTEX
  8
20
 10
28.0253
 20
-34.9715
 30
0.0000
 42
1.0000
  0
VERTEX
  8
20
 10
27.9747
 20
-35.0285
 30
0.0000
  0
SEQEND
  8
0
  0
POLYLINE
  8
20
 66
1
 10
0.0000
 20
0.0000
 30
0.0000
 40
0.1524
 41
0.1524
 70
0
  0
VERTEX
  8
20
 10
35.0000
 20
-28.0000
 30
0.0000
  0
VERTEX
  8
20
 10
51.2100
 20
-46.2600
 30
0.0000
  0
SEQEND
  8
0
  0
POLYLINE
  8
20
 66
1
 10
0.0000
 20
0.0000
 30
0.0000
 40
0.0762
 41
0.0762
 70
0
  0
VERTEX
  8
20
 10
51.1815
 20
-46.2853
 30
0.0000
 42
1.0000
  0
VERTEX
  8
20
 10
51.2385
 20
-46.2347
 30
0.0000
  0
SEQEND
  8
0
  0
POLYLINE
  8
20
 66
1
 10
0.0000
 20
0.0000
 30
0.0000
 40
0.0762
 41
0.0762
 70
0
  0
VERTEX
  8
20
 10
35.0285
 20
-27.9747
 30
0.0000
 42
1.0000
  0
VERTEX
  8
20
 10
34.9715
 20
-28.0253
 30
0.0000
  0
SEQEND
  8
0
  0
POLYLINE
  8
20
 66
1
 10
0.0000
 20
0.0000
 30
0.0000
 40
0.1524
 41
0.1524
 70
0
  0
VERTEX
  8
20
 10
51.2100
 20
-46.2600
 30
0.0000
 42
0.1144
  0
VERTEX
  8
20
 10
54.0000
 20
-48.0000
 30
0.0000
  0
SEQEND
  8
0
  0
POLYLINE
  8
20
 66
1
 10
0.0000
 20
0.0000
 30
0.0000
 40
0.0762
 41
0.0762
 70
0
  0
VERTEX
  8
20
 10
51.2369
 20
-46.2331
 30
0.0000
 42
1.0000
  0
VERTEX
  8
20
 10
51.1831
 20
-46.2869
 30
0.0000
  0
SEQEND
  8
0
  0
POLYLINE
  8
20
 66
1
 10
0.0000
 20
0.0000
 30
0.0000
 40
0.0762
 41
0.0762
 70
0
  0
VERTEX
  8
20
 10
53.9877
 20
-48.0360
 30
0.0000
 42
1.0000
  0
VERTEX
  8
20
 10
54.0123
 20
-47.9640
 30
0.0000
  0
SEQEND
  8
0
  0
POLYLINE
  8
20
 66
1
 10
0.0000
 20
0.0000
 30
0.0000
 40
0.1524
 41
0.1524
 70
0
  0
VERTEX
  8
20
 10
54.0000
 20
-48.0000
 30
0.0000
  0
VERTEX
  8
20
 10
59.0000
 20
-49.0000
 30
0.0000
  0
SEQEND
  8
0
  0
POLYLINE
  8
20
 66
1
 10
0.0000
 20
0.0000
 30
0.0000
 40
0.0762
 41
0.0762
 70
0
  0
VERTEX
  8
20
 10
58.9925
 20
-49.0374
 30
0.0000
 42
1.0000
  0
VERTEX
  8
20
 10
59.0075
 20
-48.9626
 30
0.0000
  0
SEQEND
  8
0
  0
POLYLINE
  8
20
 66
1
 10
0.0000
 20
0.0000
 30
0.0000
 40
0.0762
 41
0.0762
 70
0
  0
VERTEX
  8
20
 10
54.0075
 20
-47.9626
 30
0.0000
 42
1.0000
  0
VERTEX
  8
20
 10
53.9925
 20
-48.0374
 30
0.0000
  0
SEQEND
  8
0
  0
POLYLINE
  8
20
 66
1
 10
0.0000
 20
0.0000
 30
0.0000
 40
0.1524
 41
0.1524
 70
0
  0
VERTEX
  8
20
 10
48.0000
 20
-54.0000
 30
0.0000
 42
0.1144
  0
VERTEX
  8
20
 10
46.2600
 20
-51.2100
 30
0.0000
  0
SEQEND
  8
0
  0
POLYLINE
  8
20
 66
1
 10
0.0000
 20
0.0000
 30
0.0000
 40
0.0762
 41
0.0762
 70
0
  0
VERTEX
  8
20
 10
47.9640
 20
-54.0123
 30
0.0000
 42
1.0000
  0
VERTEX
  8
20
 10
48.0360
 20
-53.9877
 30
0.0000
  0
SEQEND
  8
0
  0
POLYLINE
  8
20
 66
1
 10
0.0000
 20
0.0000
 30
0.0000
 40
0.0762
 41
0.0762
 70
0
  0
VERTEX
  8
20
 10
46.2869
 20
-51.1831
 30
0.0000
 42
1.0000
  0
VERTEX
  8
20
 10
46.2331
 20
-51.2369
 30
0.0000
  0
SEQEND
  8
0
  0
POLYLINE
  8
20
 66
1
 10
0.0000
 20
0.0000
 30
0.0000
 40
0.1524
 41
0.1524
 70
0
  0
VERTEX
  8
20
 10
48.0000
 20
-54.0000
 30
0.0000
  0
VERTEX
  8
20
 10
49.0000
 20
-59.0000
 30
0.0000
  0
SEQEND
  8
0
  0
POLYLINE
  8
20
 66
1
 10
0.0000
 20
0.0000
 30
0.0000
 40
0.0762
 41
0.0762
 70
0
  0
VERTEX
  8
20
 10
48.9626
 20
-59.0075
 30
0.0000
 42
1.0000
  0
VERTEX
  8
20
 10
49.0374
 20
-58.9925
 30
0.0000
  0
SEQEND
  8
0
  0
POLYLINE
  8
20
 66
1
 10
0.0000
 20
0.0000
 30
0.0000
 40
0.0762
 41
0.0762
 70
0
  0
VERTEX
  8
20
 10
48.0374
 20
-53.9925
 30
0.0000
 42
1.0000
  0
VERTEX
  8
20
 10
47.9626
 20
-54.0075
 30
0.0000
  0
SEQEND
  8
0
  0
POLYLINE
  8
20
 66
1
 10
0.0000
 20
0.0000
 30
0.0000
 40
0.1524
 41
0.1524
 70
0
  0
VERTEX
  8
20
 10
49.0000
 20
-59.0000
 30
0.0000
 42
0.5325
  0
VERTEX
  8
20
 10
61.0000
 20
-64.0000
 30
0.0000
  0
SEQEND
  8
0
  0
POLYLINE
  8
20
 66
1
 10
0.0000
 20
0.0000
 30
0.0000
 40
0.0762
 41
0.0762
 70
0
  0
VERTEX
  8
20
 10
49.0374
 20
-58.9925
 30
0.0000
 42
1.0000
  0
VERTEX
  8
20
 10
48.9626
 20
-59.0075
 30
0.0000
  0
SEQEND
  8
0
  0
POLYLINE
  8
20
 66
1
 10
0.0000
 20
0.0000
 30
0.0000
 40
0.0762
 41
0.0762
 70
0
  0
VERTEX
  8
20
 10
61.0210
 20
-64.0318
 30
0.0000
 42
1.0000
  0
VERTEX
  8
20
 10
60.9790
 20
-63.9682
 30
0.0000
  0
SEQEND
  8
0
  0
POLYLINE
  8
20
 66
1
 10
0.0000
 20
0.0000
 30
0.0000
 40
0.1524
 41
0.1524
 70
0
  0
VERTEX
  8
20
 10
64.0000
 20
-61.0000
 30
0.0000
 42
0.5325
  0
VERTEX
  8
20
 10
59.0000
 20
-49.0000
 30
0.0000
  0
SEQEND
  8
0
  0
POLYLINE
  8
20
 66
1
 10
0.0000
 20
0.0000
 30
0.0000
 40
0.0762
 41
0.0762
 70
0
  0
VERTEX
  8
20
 10
63.9682
 20
-60.9790
 30
0.0000
 42
1.0000
  0
VERTEX
  8
20
 10
64.0318
 20
-61.0210
 30
0.0000
  0
SEQEND
  8
0
  0
POLYLINE
  8
20
 66
1
 10
0.0000
 20
0.0000
 30
0.0000
 40
0.0762
 41
0.0762
 70
0
  0
VERTEX
  8
20
 10
59.0075
 20
-48.9626
 30
0.0000
 42
1.0000
  0
VERTEX
  8
20
 10
58.9925
 20
-49.0374
 30
0.0000
  0
SEQEND
  8
0
  0
POLYLINE
  8
20
 66
1
 10
0.0000
 20
0.0000
 30
0.0000
 40
0.1524
 41
0.1524
 70
0
  0
VERTEX
  8
20
 10
64.0000
 20
-61.0000
 30
0.0000
  0
VERTEX
  8
20
 10
61.0000
 20
-58.0000
 30
0.0000
  0
SEQEND
  8
0
  0
POLYLINE
  8
20
 66
1
 10
0.0000
 20
0.0000
 30
0.0000
 40
0.0762
 41
0.0762
 70
0
  0
VERTEX
  8
20
 10
61.0269
 20
-57.9731
 30
0.0000
 42
1.0000
  0
VERTEX
  8
20
 10
60.9731
 20
-58.0269
 30
0.0000
  0
SEQEND
  8
0
  0
POLYLINE
  8
20
 66
1
 10
0.0000
 20
0.0000
 30
0.0000
 40
0.0762
 41
0.0762
 70
0
  0
VERTEX
  8
20
 10
63.9731
 20
-61.0269
 30
0.0000
 42
1.0000
  0
VERTEX
  8
20
 10
64.0269
 20
-60.9731
 30
0.0000
  0
SEQEND
  8
0
  0
POLYLINE
  8
20
 66
1
 10
0.0000
 20
0.0000
 30
0.0000
 40
0.1524
 41
0.1524
 70
0
  0
VERTEX
  8
20
 10
61.0000
 20
-64.0000
 30
0.0000
  0
VERTEX
  8
20
 10
58.0000
 20
-61.0000
 30
0.0000
  0
SEQEND
  8
0
  0
POLYLINE
  8
20
 66
1
 10
0.0000
 20
0.0000
 30
0.0000
 40
0.0762
 41
0.0762
 70
0
  0
VERTEX
  8
20
 10
58.0269
 20
-60.9731
 30
0.0000
 42
1.0000
  0
VERTEX
  8
20
 10
57.9731
 20
-61.0269
 30
0.0000
  0
SEQEND
  8
0
  0
POLYLINE
  8
20
 66
1
 10
0.0000
 20
0.0000
 30
0.0000
 40
0.0762
 41
0.0762
 70
0
  0
VERTEX
  8
20
 10
60.9731
 20
-64.0269
 30
0.0000
 42
1.0000
  0
VERTEX
  8
20
 10
61.0269
 20
-63.9731
 30
0.0000
  0
SEQEND
  8
0
  0
POLYLINE
  8
20
 66
1
 10
0.0000
 20
0.0000
 30
0.0000
 40
0.1524
 41
0.1524
 70
0
  0
VERTEX
  8
20
 10
33.0000
 20
-21.0000
 30
0.0000
 42
0.1926
  0
VERTEX
  8
20
 10
35.0000
 20
-28.0000
 30
0.0000
  0
SEQEND
  8
0
  0
POLYLINE
  8
20
 66
1
 10
0.0000
 20
0.0000
 30
0.0000
 40
0.0762
 41
0.0762
 70
0
  0
VERTEX
  8
20
 10
33.0379
 20
-21.0039
 30
0.0000
 42
1.0000
  0
VERTEX
  8
20
 10
32.9621
 20
-20.9961
 30
0.0000
  0
SEQEND
  8
0
  0
POLYLINE
  8
20
 66
1
 10
0.0000
 20
0.0000
 30
0.0000
 40
0.0762
 41
0.0762
 70
0
  0
VERTEX
  8
20
 10
34.9699
 20
-28.0233
 30
0.0000
 42
1.0000
  0
VERTEX
  8
20
 10
35.0301
 20
-27.9767
 30
0.0000
  0
SEQEND
  8
0
  0
POLYLINE
  8
20
 66
1
 10
0.0000
 20
0.0000
 30
0.0000
 40
0.1524
 41
0.1524
 70
0
  0
VERTEX
  8
20
 10
28.0000
 20
-35.0000
 30
0.0000
 42
0.2053
  0
VERTEX
  8
20
 10
21.0000
 20
-33.0000
 30
0.0000
  0
SEQEND
  8
0
  0
POLYLINE
  8
20
 66
1
 10
0.0000
 20
0.0000
 30
0.0000
 40
0.0762
 41
0.0762
 70
0
  0
VERTEX
  8
20
 10
27.9759
 20
-35.0295
 30
0.0000
 42
1.0000
  0
VERTEX
  8
20
 10
28.0241
 20
-34.9705
 30
0.0000
  0
SEQEND
  8
0
  0
POLYLINE
  8
20
 66
1
 10
0.0000
 20
0.0000
 30
0.0000
 40
0.0762
 41
0.0762
 70
0
  0
VERTEX
  8
20
 10
20.9952
 20
-32.9622
 30
0.0000
 42
1.0000
  0
VERTEX
  8
20
 10
21.0048
 20
-33.0378
 30
0.0000
  0
SEQEND
  8
0
  0
POLYLINE
  8
20
 66
1
 10
0.0000
 20
0.0000
 30
0.0000
 40
0.1524
 41
0.1524
 70
0
  0
VERTEX
  8
20
 10
-28.0000
 20
35.0000
 30
0.0000
  0
VERTEX
  8
20
 10
-46.2600
 20
51.2100
 30
0.0000
  0
SEQEND
  8
0
  0
POLYLINE
  8
20
 66
1
 10
0.0000
 20
0.0000
 30
0.0000
 40
0.0762
 41
0.0762
 70
0
  0
VERTEX
  8
20
 10
-46.2347
 20
51.2385
 30
0.0000
 42
1.0000
  0
VERTEX
  8
20
 10
-46.2853
 20
51.1815
 30
0.0000
  0
SEQEND
  8
0
  0
POLYLINE
  8
20
 66
1
 10
0.0000
 20
0.0000
 30
0.0000
 40
0.0762
 41
0.0762
 70
0
  0
VERTEX
  8
20
 10
-28.0253
 20
34.9715
 30
0.0000
 42
1.0000
  0
VERTEX
  8
20
 10
-27.9747
 20
35.0285
 30
0.0000
  0
SEQEND
  8
0
  0
POLYLINE
  8
20
 66
1
 10
0.0000
 20
0.0000
 30
0.0000
 40
0.1524
 41
0.1524
 70
0
  0
VERTEX
  8
20
 10
-35.0000
 20
28.0000
 30
0.0000
  0
VERTEX
  8
20
 10
-51.2100
 20
46.2600
 30
0.0000
  0
SEQEND
  8
0
  0
POLYLINE
  8
20
 66
1
 10
0.0000
 20
0.0000
 30
0.0000
 40
0.0762
 41
0.0762
 70
0
  0
VERTEX
  8
20
 10
-51.1815
 20
46.2853
 30
0.0000
 42
1.0000
  0
VERTEX
  8
20
 10
-51.2385
 20
46.2347
 30
0.0000
  0
SEQEND
  8
0
  0
POLYLINE
  8
20
 66
1
 10
0.0000
 20
0.0000
 30
0.0000
 40
0.0762
 41
0.0762
 70
0
  0
VERTEX
  8
20
 10
-35.0285
 20
27.9747
 30
0.0000
 42
1.0000
  0
VERTEX
  8
20
 10
-34.9715
 20
28.0253
 30
0.0000
  0
SEQEND
  8
0
  0
POLYLINE
  8
20
 66
1
 10
0.0000
 20
0.0000
 30
0.0000
 40
0.1524
 41
0.1524
 70
0
  0
VERTEX
  8
20
 10
-51.2100
 20
46.2600
 30
0.0000
 42
0.1144
  0
VERTEX
  8
20
 10
-54.0000
 20
48.0000
 30
0.0000
  0
SEQEND
  8
0
  0
POLYLINE
  8
20
 66
1
 10
0.0000
 20
0.0000
 30
0.0000
 40
0.0762
 41
0.0762
 70
0
  0
VERTEX
  8
20
 10
-51.2369
 20
46.2331
 30
0.0000
 42
1.0000
  0
VERTEX
  8
20
 10
-51.1831
 20
46.2869
 30
0.0000
  0
SEQEND
  8
0
  0
POLYLINE
  8
20
 66
1
 10
0.0000
 20
0.0000
 30
0.0000
 40
0.0762
 41
0.0762
 70
0
  0
VERTEX
  8
20
 10
-53.9877
 20
48.0360
 30
0.0000
 42
1.0000
  0
VERTEX
  8
20
 10
-54.0123
 20
47.9640
 30
0.0000
  0
SEQEND
  8
0
  0
POLYLINE
  8
20
 66
1
 10
0.0000
 20
0.0000
 30
0.0000
 40
0.1524
 41
0.1524
 70
0
  0
VERTEX
  8
20
 10
-54.0000
 20
48.0000
 30
0.0000
  0
VERTEX
  8
20
 10
-59.0000
 20
49.0000
 30
0.0000
  0
SEQEND
  8
0
  0
POLYLINE
  8
20
 66
1
 10
0.0000
 20
0.0000
 30
0.0000
 40
0.0762
 41
0.0762
 70
0
  0
VERTEX
  8
20
 10
-58.9925
 20
49.0374
 30
0.0000
 42
1.0000
  0
VERTEX
  8
20
 10
-59.0075
 20
48.9626
 30
0.0000
  0
SEQEND
  8
0
  0
POLYLINE
  8
20
 66
1
 10
0.0000
 20
0.0000
 30
0.0000
 40
0.0762
 41
0.0762
 70
0
  0
VERTEX
  8
20
 10
-54.0075
 20
47.9626
 30
0.0000
 42
1.0000
  0
VERTEX
  8
20
 10
-53.9925
 20
48.0374
 30
0.0000
  0
SEQEND
  8
0
  0
POLYLINE
  8
20
 66
1
 10
0.0000
 20
0.0000
 30
0.0000
 40
0.1524
 41
0.1524
 70
0
  0
VERTEX
  8
20
 10
-48.0000
 20
54.0000
 30
0.0000
 42
0.1144
  0
VERTEX
  8
20
 10
-46.2600
 20
51.2100
 30
0.0000
  0
SEQEND
  8
0
  0
POLYLINE
  8
20
 66
1
 10
0.0000
 20
0.0000
 30
0.0000
 40
0.0762
 41
0.0762
 70
0
  0
VERTEX
  8
20
 10
-47.9640
 20
54.0123
 30
0.0000
 42
1.0000
  0
VERTEX
  8
20
 10
-48.0360
 20
53.9877
 30
0.0000
  0
SEQEND
  8
0
  0
POLYLINE
  8
20
 66
1
 10
0.0000
 20
0.0000
 30
0.0000
 40
0.0762
 41
0.0762
 70
0
  0
VERTEX
  8
20
 10
-46.2869
 20
51.1831
 30
0.0000
 42
1.0000
  0
VERTEX
  8
20
 10
-46.2331
 20
51.2369
 30
0.0000
  0
SEQEND
  8
0
  0
POLYLINE
  8
20
 66
1
 10
0.0000
 20
0.0000
 30
0.0000
 40
0.1524
 41
0.1524
 70
0
  0
VERTEX
  8
20
 10
-48.0000
 20
54.0000
 30
0.0000
  0
VERTEX
  8
20
 10
-49.0000
 20
59.0000
 30
0.0000
  0
SEQEND
  8
0
  0
POLYLINE
  8
20
 66
1
 10
0.0000
 20
0.0000
 30
0.0000
 40
0.0762
 41
0.0762
 70
0
  0
VERTEX
  8
20
 10
-48.9626
 20
59.0075
 30
0.0000
 42
1.0000
  0
VERTEX
  8
20
 10
-49.0374
 20
58.9925
 30
0.0000
  0
SEQEND
  8
0
  0
POLYLINE
  8
20
 66
1
 10
0.0000
 20
0.0000
 30
0.0000
 40
0.0762
 41
0.0762
 70
0
  0
VERTEX
  8
20
 10
-48.0374
 20
53.9925
 30
0.0000
 42
1.0000
  0
VERTEX
  8
20
 10
-47.9626
 20
54.0075
 30
0.0000
  0
SEQEND
  8
0
  0
POLYLINE
  8
20
 66
1
 10
0.0000
 20
0.0000
 30
0.0000
 40
0.1524
 41
0.1524
 70
0
  0
VERTEX
  8
20
 10
-49.0000
 20
59.0000
 30
0.0000
 42
0.5325
  0
VERTEX
  8
20
 10
-61.0000
 20
64.0000
 30
0.0000
  0
SEQEND
  8
0
  0
POLYLINE
  8
20
 66
1
 10
0.0000
 20
0.0000
 30
0.0000
 40
0.0762
 41
0.0762
 70
0
  0
VERTEX
  8
20
 10
-49.0374
 20
58.9925
 30
0.0000
 42
1.0000
  0
VERTEX
  8
20
 10
-48.9626
 20
59.0075
 30
0.0000
  0
SEQEND
  8
0
  0
POLYLINE
  8
20
 66
1
 10
0.0000
 20
0.0000
 30
0.0000
 40
0.0762
 41
0.0762
 70
0
  0
VERTEX
  8
20
 10
-61.0210
 20
64.0318
 30
0.0000
 42
1.0000
  0
VERTEX
  8
20
 10
-60.9790
 20
63.9682
 30
0.0000
  0
SEQEND
  8
0
  0
POLYLINE
  8
20
 66
1
 10
0.0000
 20
0.0000
 30
0.0000
 40
0.1524
 41
0.1524
 70
0
  0
VERTEX
  8
20
 10
-64.0000
 20
61.0000
 30
0.0000
 42
0.5325
  0
VERTEX
  8
20
 10
-59.0000
 20
49.0000
 30
0.0000
  0
SEQEND
  8
0
  0
POLYLINE
  8
20
 66
1
 10
0.0000
 20
0.0000
 30
0.0000
 40
0.0762
 41
0.0762
 70
0
  0
VERTEX
  8
20
 10
-63.9682
 20
60.9790
 30
0.0000
 42
1.0000
  0
VERTEX
  8
20
 10
-64.0318
 20
61.0210
 30
0.0000
  0
SEQEND
  8
0
  0
POLYLINE
  8
20
 66
1
 10
0.0000
 20
0.0000
 30
0.0000
 40
0.0762
 41
0.0762
 70
0
  0
VERTEX
  8
20
 10
-59.0075
 20
48.9626
 30
0.0000
 42
1.0000
  0
VERTEX
  8
20
 10
-58.9925
 20
49.0374
 30
0.0000
  0
SEQEND
  8
0
  0
POLYLINE
  8
20
 66
1
 10
0.0000
 20
0.0000
 30
0.0000
 40
0.1524
 41
0.1524
 70
0
  0
VERTEX
  8
20
 10
-64.0000
 20
61.0000
 30
0.0000
  0
VERTEX
  8
20
 10
-61.0000
 20
58.0000
 30
0.0000
  0
SEQEND
  8
0
  0
POLYLINE
  8
20
 66
1
 10
0.0000
 20
0.0000
 30
0.0000
 40
0.0762
 41
0.0762
 70
0
  0
VERTEX
  8
20
 10
-61.0269
 20
57.9731
 30
0.0000
 42
1.0000
  0
VERTEX
  8
20
 10
-60.9731
 20
58.0269
 30
0.0000
  0
SEQEND
  8
0
  0
POLYLINE
  8
20
 66
1
 10
0.0000
 20
0.0000
 30
0.0000
 40
0.0762
 41
0.0762
 70
0
  0
VERTEX
  8
20
 10
-63.9731
 20
61.0269
 30
0.0000
 42
1.0000
  0
VERTEX
  8
20
 10
-64.0269
 20
60.9731
 30
0.0000
  0
SEQEND
  8
0
  0
POLYLINE
  8
20
 66
1
 10
0.0000
 20
0.0000
 30
0.0000
 40
0.1524
 41
0.1524
 70
0
  0
VERTEX
  8
20
 10
-61.0000
 20
64.0000
 30
0.0000
  0
VERTEX
  8
20
 10
-58.0000
 20
61.0000
 30
0.0000
  0
SEQEND
  8
0
  0
POLYLINE
  8
20
 66
1
 10
0.0000
 20
0.0000
 30
0.0000
 40
0.0762
 41
0.0762
 70
0
  0
VERTEX
  8
20
 10
-58.0269
 20
60.9731
 30
0.0000
 42
1.0000
  0
VERTEX
  8
20
 10
-57.9731
 20
61.0269
 30
0.0000
  0
SEQEND
  8
0
  0
POLYLINE
  8
20
 66
1
 10
0.0000
 20
0.0000
 30
0.0000
 40
0.0762
 41
0.0762
 70
0
  0
VERTEX
  8
20
 10
-60.9731
 20
64.0269
 30
0.0000
 42
1.0000
  0
VERTEX
  8
20
 10
-61.0269
 20
63.9731
 30
0.0000
  0
SEQEND
  8
0
  0
POLYLINE
  8
20
 66
1
 10
0.0000
 20
0.0000
 30
0.0000
 40
0.1524
 41
0.1524
 70
0
  0
VERTEX
  8
20
 10
-33.0000
 20
21.0000
 30
0.0000
 42
0.1926
  0
VERTEX
  8
20
 10
-35.0000
 20
28.0000
 30
0.0000
  0
SEQEND
  8
0
  0
POLYLINE
  8
20
 66
1
 10
0.0000
 20
0.0000
 30
0.0000
 40
0.0762
 41
0.0762
 70
0
  0
VERTEX
  8
20
 10
-33.0379
 20
21.0039
 30
0.0000
 42
1.0000
  0
VERTEX
  8
20
 10
-32.9621
 20
20.9961
 30
0.0000
  0
SEQEND
  8
0
  0
POLYLINE
  8
20
 66
1
 10
0.0000
 20
0.0000
 30
0.0000
 40
0.0762
 41
0.0762
 70
0
  0
VERTEX
  8
20
 10
-34.9699
 20
28.0233
 30
0.0000
 42
1.0000
  0
VERTEX
  8
20
 10
-35.0301
 20
27.9767
 30
0.0000
  0
SEQEND
  8
0
  0
POLYLINE
  8
20
 66
1
 10
0.0000
 20
0.0000
 30
0.0000
 40
0.1524
 41
0.1524
 70
0
  0
VERTEX
  8
20
 10
-28.0000
 20
35.0000
 30
0.0000
 42
0.2053
  0
VERTEX
  8
20
 10
-22.0000
 20
33.0000
 30
0.0000
  0
SEQEND
  8
0
  0
POLYLINE
  8
20
 66
1
 10
0.0000
 20
0.0000
 30
0.0000
 40
0.0762
 41
0.0762
 70
0
  0
VERTEX
  8
20
 10
-27.9747
 20
35.0285
 30
0.0000
 42
1.0000
  0
VERTEX
  8
20
 10
-28.0253
 20
34.9715
 30
0.0000
  0
SEQEND
  8
0
  0
POLYLINE
  8
20
 66
1
 10
0.0000
 20
0.0000
 30
0.0000
 40
0.0762
 41
0.0762
 70
0
  0
VERTEX
  8
20
 10
-21.9968
 20
32.9620
 30
0.0000
 42
1.0000
  0
VERTEX
  8
20
 10
-22.0032
 20
33.0380
 30
0.0000
  0
SEQEND
  8
0
  0
POLYLINE
  8
20
 66
1
 10
0.0000
 20
0.0000
 30
0.0000
 40
0.1524
 41
0.1524
 70
0
  0
VERTEX
  8
20
 10
61.0000
 20
-58.0000
 30
0.0000
 42
3.6878
  0
VERTEX
  8
20
 10
58.0000
 20
-61.0000
 30
0.0000
  0
SEQEND
  8
0
  0
POLYLINE
  8
20
 66
1
 10
0.0000
 20
0.0000
 30
0.0000
 40
0.0762
 41
0.0762
 70
0
  0
VERTEX
  8
20
 10
60.9631
 20
-57.9904
 30
0.0000
 42
1.0000
  0
VERTEX
  8
20
 10
61.0369
 20
-58.0096
 30
0.0000
  0
SEQEND
  8
0
  0
POLYLINE
  8
20
 66
1
 10
0.0000
 20
0.0000
 30
0.0000
 40
0.0762
 41
0.0762
 70
0
  0
VERTEX
  8
20
 10
58.0096
 20
-61.0369
 30
0.0000
 42
1.0000
  0
VERTEX
  8
20
 10
57.9904
 20
-60.9631
 30
0.0000
  0
SEQEND
  8
0
  0
POLYLINE
  8
20
 66
1
 10
0.0000
 20
0.0000
 30
0.0000
 40
0.1524
 41
0.1524
 70
0
  0
VERTEX
  8
20
 10
-61.0000
 20
58.0000
 30
0.0000
 42
3.6878
  0
VERTEX
  8
20
 10
-58.0000
 20
61.0000
 30
0.0000
  0
SEQEND
  8
0
  0
POLYLINE
  8
20
 66
1
 10
0.0000
 20
0.0000
 30
0.0000
 40
0.0762
 41
0.0762
 70
0
  0
VERTEX
  8
20
 10
-60.9631
 20
57.9904
 30
0.0000
 42
1.0000
  0
VERTEX
  8
20
 10
-61.0369
 20
58.0096
 30
0.0000
  0
SEQEND
  8
0
  0
POLYLINE
  8
20
 66
1
 10
0.0000
 20
0.0000
 30
0.0000
 40
0.0762
 41
0.0762
 70
0
  0
VERTEX
  8
20
 10
-58.0096
 20
61.0369
 30
0.0000
 42
1.0000
  0
VERTEX
  8
20
 10
-57.9904
 20
60.9631
 30
0.0000
  0
SEQEND
  8
0
  0
POLYLINE
  8
20
 66
1
 10
0.0000
 20
0.0000
 30
0.0000
 40
0.1524
 41
0.1524
 70
0
  0
VERTEX
  8
20
 10
58.0000
 20
61.0000
 30
0.0000
 42
3.6878
  0
VERTEX
  8
20
 10
61.0000
 20
58.0000
 30
0.0000
  0
SEQEND
  8
0
  0
POLYLINE
  8
20
 66
1
 10
0.0000
 20
0.0000
 30
0.0000
 40
0.0762
 41
0.0762
 70
0
  0
VERTEX
  8
20
 10
57.9904
 20
60.9631
 30
0.0000
 42
1.0000
  0
VERTEX
  8
20
 10
58.0096
 20
61.0369
 30
0.0000
  0
SEQEND
  8
0
  0
POLYLINE
  8
20
 66
1
 10
0.0000
 20
0.0000
 30
0.0000
 40
0.0762
 41
0.0762
 70
0
  0
VERTEX
  8
20
 10
61.0369
 20
58.0096
 30
0.0000
 42
1.0000
  0
VERTEX
  8
20
 10
60.9631
 20
57.9904
 30
0.0000
  0
SEQEND
  8
0
  0
POLYLINE
  8
20
 66
1
 10
0.0000
 20
0.0000
 30
0.0000
 40
0.1524
 41
0.1524
 70
0
  0
VERTEX
  8
20
 10
-58.0000
 20
-61.0000
 30
0.0000
 42
3.6878
  0
VERTEX
  8
20
 10
-61.0000
 20
-58.0000
 30
0.0000
  0
SEQEND
  8
0
  0
POLYLINE
  8
20
 66
1
 10
0.0000
 20
0.0000
 30
0.0000
 40
0.0762
 41
0.0762
 70
0
  0
VERTEX
  8
20
 10
-57.9904
 20
-60.9631
 30
0.0000
 42
1.0000
  0
VERTEX
  8
20
 10
-58.0096
 20
-61.0369
 30
0.0000
  0
SEQEND
  8
0
  0
POLYLINE
  8
20
 66
1
 10
0.0000
 20
0.0000
 30
0.0000
 40
0.0762
 41
0.0762
 70
0
  0
VERTEX
  8
20
 10
-61.0369
 20
-58.0096
 30
0.0000
 42
1.0000
  0
VERTEX
  8
20
 10
-60.9631
 20
-57.9904
 30
0.0000
  0
SEQEND
  8
0
  0
POLYLINE
  8
20
 66
1
 10
0.0000
 20
0.0000
 30
0.0000
 40
0.1524
 41
0.1524
 70
0
  0
VERTEX
  8
20
 10
-42.0000
 20
-5.0000
 30
0.0000
  0
VERTEX
  8
20
 10
-44.0000
 20
-5.0000
 30
0.0000
  0
SEQEND
  8
0
  0
POLYLINE
  8
20
 66
1
 10
0.0000
 20
0.0000
 30
0.0000
 40
0.0762
 41
0.0762
 70
0
  0
VERTEX
  8
20
 10
-44.0000
 20
-4.9619
 30
0.0000
 42
1.0000
  0
VERTEX
  8
20
 10
-44.0000
 20
-5.0381
 30
0.0000
  0
SEQEND
  8
0
  0
POLYLINE
  8
20
 66
1
 10
0.0000
 20
0.0000
 30
0.0000
 40
0.0762
 41
0.0762
 70
0
  0
VERTEX
  8
20
 10
-42.0000
 20
-5.0381
 30
0.0000
 42
1.0000
  0
VERTEX
  8
20
 10
-42.0000
 20
-4.9619
 30
0.0000
  0
SEQEND
  8
0
  0
POLYLINE
  8
20
 66
1
 10
0.0000
 20
0.0000
 30
0.0000
 40
0.1524
 41
0.1524
 70
0
  0
VERTEX
  8
20
 10
-44.0000
 20
-5.0000
 30
0.0000
  0
VERTEX
  8
20
 10
-46.0000
 20
-10.0000
 30
0.0000
  0
SEQEND
  8
0
  0
POLYLINE
  8
20
 66
1
 10
0.0000
 20
0.0000
 30
0.0000
 40
0.0762
 41
0.0762
 70
0
  0
VERTEX
  8
20
 10
-46.0354
 20
-9.9859
 30
0.0000
 42
1.0000
  0
VERTEX
  8
20
 10
-45.9646
 20
-10.0141
 30
0.0000
  0
SEQEND
  8
0
  0
POLYLINE
  8
20
 66
1
 10
0.0000
 20
0.0000
 30
0.0000
 40
0.0762
 41
0.0762
 70
0
  0
VERTEX
  8
20
 10
-43.9646
 20
-5.0141
 30
0.0000
 42
1.0000
  0
VERTEX
  8
20
 10
-44.0354
 20
-4.9859
 30
0.0000
  0
SEQEND
  8
0
  0
POLYLINE
  8
20
 66
1
 10
0.0000
 20
0.0000
 30
0.0000
 40
0.1524
 41
0.1524
 70
0
  0
VERTEX
  8
20
 10
-46.0000
 20
-10.0000
 30
0.0000
  0
VERTEX
  8
20
 10
-35.0000
 20
-10.0000
 30
0.0000
  0
SEQEND
  8
0
  0
POLYLINE
  8
20
 66
1
 10
0.0000
 20
0.0000
 30
0.0000
 40
0.0762
 41
0.0762
 70
0
  0
VERTEX
  8
20
 10
-35.0000
 20
-10.0381
 30
0.0000
 42
1.0000
  0
VERTEX
  8
20
 10
-35.0000
 20
-9.9619
 30
0.0000
  0
SEQEND
  8
0
  0
POLYLINE
  8
20
 66
1
 10
0.0000
 20
0.0000
 30
0.0000
 40
0.0762
 41
0.0762
 70
0
  0
VERTEX
  8
20
 10
-46.0000
 20
-9.9619
 30
0.0000
 42
1.0000
  0
VERTEX
  8
20
 10
-46.0000
 20
-10.0381
 30
0.0000
  0
SEQEND
  8
0
  0
POLYLINE
  8
20
 66
1
 10
0.0000
 20
0.0000
 30
0.0000
 40
0.1524
 41
0.1524
 70
0
  0
VERTEX
  8
20
 10
-35.0000
 20
-10.0000
 30
0.0000
  0
VERTEX
  8
20
 10
-35.0000
 20
-6.0000
 30
0.0000
  0
SEQEND
  8
0
  0
POLYLINE
  8
20
 66
1
 10
0.0000
 20
0.0000
 30
0.0000
 40
0.0762
 41
0.0762
 70
0
  0
VERTEX
  8
20
 10
-34.9619
 20
-6.0000
 30
0.0000
 42
1.0000
  0
VERTEX
  8
20
 10
-35.0381
 20
-6.0000
 30
0.0000
  0
SEQEND
  8
0
  0
POLYLINE
  8
20
 66
1
 10
0.0000
 20
0.0000
 30
0.0000
 40
0.0762
 41
0.0762
 70
0
  0
VERTEX
  8
20
 10
-35.0381
 20
-10.0000
 30
0.0000
 42
1.0000
  0
VERTEX
  8
20
 10
-34.9619
 20
-10.0000
 30
0.0000
  0
SEQEND
  8
0
  0
POLYLINE
  8
20
 66
1
 10
0.0000
 20
0.0000
 30
0.0000
 40
0.1524
 41
0.1524
 70
0
  0
VERTEX
  8
20
 10
-35.0000
 20
-6.0000
 30
0.0000
  0
VERTEX
  8
20
 10
-33.0000
 20
-6.0000
 30
0.0000
  0
SEQEND
  8
0
  0
POLYLINE
  8
20
 66
1
 10
0.0000
 20
0.0000
 30
0.0000
 40
0.0762
 41
0.0762
 70
0
  0
VERTEX
  8
20
 10
-33.0000
 20
-6.0381
 30
0.0000
 42
1.0000
  0
VERTEX
  8
20
 10
-33.0000
 20
-5.9619
 30
0.0000
  0
SEQEND
  8
0
  0
POLYLINE
  8
20
 66
1
 10
0.0000
 20
0.0000
 30
0.0000
 40
0.0762
 41
0.0762
 70
0
  0
VERTEX
  8
20
 10
-35.0000
 20
-5.9619
 30
0.0000
 42
1.0000
  0
VERTEX
  8
20
 10
-35.0000
 20
-6.0381
 30
0.0000
  0
SEQEND
  8
0
  0
POLYLINE
  8
20
 66
1
 10
0.0000
 20
0.0000
 30
0.0000
 40
0.1524
 41
0.1524
 70
0
  0
VERTEX
  8
20
 10
-35.0000
 20
18.0000
 30
0.0000
  0
VERTEX
  8
20
 10
-33.0000
 20
18.0000
 30
0.0000
  0
SEQEND
  8
0
  0
POLYLINE
  8
20
 66
1
 10
0.0000
 20
0.0000
 30
0.0000
 40
0.0762
 41
0.0762
 70
0
  0
VERTEX
  8
20
 10
-33.0000
 20
17.9619
 30
0.0000
 42
1.0000
  0
VERTEX
  8
20
 10
-33.0000
 20
18.0381
 30
0.0000
  0
SEQEND
  8
0
  0
POLYLINE
  8
20
 66
1
 10
0.0000
 20
0.0000
 30
0.0000
 40
0.0762
 41
0.0762
 70
0
  0
VERTEX
  8
20
 10
-35.0000
 20
18.0381
 30
0.0000
 42
1.0000
  0
VERTEX
  8
20
 10
-35.0000
 20
17.9619
 30
0.0000
  0
SEQEND
  8
0
  0
POLYLINE
  8
20
 66
1
 10
0.0000
 20
0.0000
 30
0.0000
 40
0.1524
 41
0.1524
 70
0
  0
VERTEX
  8
20
 10
-22.0000
 20
33.0000
 30
0.0000
  0
VERTEX
  8
20
 10
-7.0000
 20
54.0000
 30
0.0000
  0
SEQEND
  8
0
  0
POLYLINE
  8
20
 66
1
 10
0.0000
 20
0.0000
 30
0.0000
 40
0.0762
 41
0.0762
 70
0
  0
VERTEX
  8
20
 10
-6.9690
 20
53.9779
 30
0.0000
 42
1.0000
  0
VERTEX
  8
20
 10
-7.0310
 20
54.0221
 30
0.0000
  0
SEQEND
  8
0
  0
POLYLINE
  8
20
 66
1
 10
0.0000
 20
0.0000
 30
0.0000
 40
0.0762
 41
0.0762
 70
0
  0
VERTEX
  8
20
 10
-22.0310
 20
33.0221
 30
0.0000
 42
1.0000
  0
VERTEX
  8
20
 10
-21.9690
 20
32.9779
 30
0.0000
  0
SEQEND
  8
0
  0
POLYLINE
  8
20
 66
1
 10
0.0000
 20
0.0000
 30
0.0000
 40
0.1524
 41
0.1524
 70
0
  0
VERTEX
  8
20
 10
7.0000
 20
54.0000
 30
0.0000
  0
VERTEX
  8
20
 10
22.0000
 20
33.0000
 30
0.0000
  0
SEQEND
  8
0
  0
POLYLINE
  8
20
 66
1
 10
0.0000
 20
0.0000
 30
0.0000
 40
0.0762
 41
0.0762
 70
0
  0
VERTEX
  8
20
 10
21.9690
 20
32.9779
 30
0.0000
 42
1.0000
  0
VERTEX
  8
20
 10
22.0310
 20
33.0221
 30
0.0000
  0
SEQEND
  8
0
  0
POLYLINE
  8
20
 66
1
 10
0.0000
 20
0.0000
 30
0.0000
 40
0.0762
 41
0.0762
 70
0
  0
VERTEX
  8
20
 10
7.0310
 20
54.0221
 30
0.0000
 42
1.0000
  0
VERTEX
  8
20
 10
6.9690
 20
53.9779
 30
0.0000
  0
SEQEND
  8
0
  0
POLYLINE
  8
20
 66
1
 10
0.0000
 20
0.0000
 30
0.0000
 40
0.1524
 41
0.1524
 70
0
  0
VERTEX
  8
20
 10
-7.0000
 20
54.0000
 30
0.0000
  0
VERTEX
  8
20
 10
0.0000
 20
59.0000
 30
0.0000
  0
SEQEND
  8
0
  0
POLYLINE
  8
20
 66
1
 10
0.0000
 20
0.0000
 30
0.0000
 40
0.0762
 41
0.0762
 70
0
  0
VERTEX
  8
20
 10
0.0221
 20
58.9690
 30
0.0000
 42
1.0000
  0
VERTEX
  8
20
 10
-0.0221
 20
59.0310
 30
0.0000
  0
SEQEND
  8
0
  0
POLYLINE
  8
20
 66
1
 10
0.0000
 20
0.0000
 30
0.0000
 40
0.0762
 41
0.0762
 70
0
  0
VERTEX
  8
20
 10
-7.0221
 20
54.0310
 30
0.0000
 42
1.0000
  0
VERTEX
  8
20
 10
-6.9779
 20
53.9690
 30
0.0000
  0
SEQEND
  8
0
  0
POLYLINE
  8
20
 66
1
 10
0.0000
 20
0.0000
 30
0.0000
 40
0.1524
 41
0.1524
 70
0
  0
VERTEX
  8
20
 10
0.0000
 20
59.0000
 30
0.0000
  0
VERTEX
  8
20
 10
7.0000
 20
54.0000
 30
0.0000
  0
SEQEND
  8
0
  0
POLYLINE
  8
20
 66
1
 10
0.0000
 20
0.0000
 30
0.0000
 40
0.0762
 41
0.0762
 70
0
  0
VERTEX
  8
20
 10
6.9779
 20
53.9690
 30
0.0000
 42
1.0000
  0
VERTEX
  8
20
 10
7.0221
 20
54.0310
 30
0.0000
  0
SEQEND
  8
0
  0
POLYLINE
  8
20
 66
1
 10
0.0000
 20
0.0000
 30
0.0000
 40
0.0762
 41
0.0762
 70
0
  0
VERTEX
  8
20
 10
0.0221
 20
59.0310
 30
0.0000
 42
1.0000
  0
VERTEX
  8
20
 10
-0.0221
 20
58.9690
 30
0.0000
  0
SEQEND
  8
0
  0
POLYLINE
  8
20
 66
1
 10
0.0000
 20
0.0000
 30
0.0000
 40
0.1524
 41
0.1524
 70
0
  0
VERTEX
  8
20
 10
-45.0000
 20
11.0000
 30
0.0000
  0
VERTEX
  8
20
 10
-42.0000
 20
-5.0000
 30
0.0000
  0
SEQEND
  8
0
  0
POLYLINE
  8
20
 66
1
 10
0.0000
 20
0.0000
 30
0.0000
 40
0.0762
 41
0.0762
 70
0
  0
VERTEX
  8
20
 10
-42.0374
 20
-5.0070
 30
0.0000
 42
1.0000
  0
VERTEX
  8
20
 10
-41.9626
 20
-4.9930
 30
0.0000
  0
SEQEND
  8
0
  0
POLYLINE
  8
20
 66
1
 10
0.0000
 20
0.0000
 30
0.0000
 40
0.0762
 41
0.0762
 70
0
  0
VERTEX
  8
20
 10
-44.9626
 20
11.0070
 30
0.0000
 42
1.0000
  0
VERTEX
  8
20
 10
-45.0374
 20
10.9930
 30
0.0000
  0
SEQEND
  8
0
  0
POLYLINE
  8
20
 66
1
 10
0.0000
 20
0.0000
 30
0.0000
 40
0.1524
 41
0.1524
 70
0
  0
VERTEX
  8
20
 10
-46.0000
 20
12.0000
 30
0.0000
  0
VERTEX
  8
20
 10
-45.0000
 20
11.0000
 30
0.0000
  0
SEQEND
  8
0
  0
POLYLINE
  8
20
 66
1
 10
0.0000
 20
0.0000
 30
0.0000
 40
0.0762
 41
0.0762
 70
0
  0
VERTEX
  8
20
 10
-45.0269
 20
10.9731
 30
0.0000
 42
1.0000
  0
VERTEX
  8
20
 10
-44.9731
 20
11.0269
 30
0.0000
  0
SEQEND
  8
0
  0
POLYLINE
  8
20
 66
1
 10
0.0000
 20
0.0000
 30
0.0000
 40
0.0762
 41
0.0762
 70
0
  0
VERTEX
  8
20
 10
-45.9731
 20
12.0269
 30
0.0000
 42
1.0000
  0
VERTEX
  8
20
 10
-46.0269
 20
11.9731
 30
0.0000
  0
SEQEND
  8
0
  0
POLYLINE
  8
20
 66
1
 10
0.0000
 20
0.0000
 30
0.0000
 40
0.1524
 41
0.1524
 70
0
  0
VERTEX
  8
20
 10
-43.0000
 20
17.0000
 30
0.0000
  0
VERTEX
  8
20
 10
-43.0000
 20
20.0000
 30
0.0000
  0
SEQEND
  8
0
  0
POLYLINE
  8
20
 66
1
 10
0.0000
 20
0.0000
 30
0.0000
 40
0.0762
 41
0.0762
 70
0
  0
VERTEX
  8
20
 10
-42.9619
 20
20.0000
 30
0.0000
 42
1.0000
  0
VERTEX
  8
20
 10
-43.0381
 20
20.0000
 30
0.0000
  0
SEQEND
  8
0
  0
POLYLINE
  8
20
 66
1
 10
0.0000
 20
0.0000
 30
0.0000
 40
0.0762
 41
0.0762
 70
0
  0
VERTEX
  8
20
 10
-43.0381
 20
17.0000
 30
0.0000
 42
1.0000
  0
VERTEX
  8
20
 10
-42.9619
 20
17.0000
 30
0.0000
  0
SEQEND
  8
0
  0
POLYLINE
  8
20
 66
1
 10
0.0000
 20
0.0000
 30
0.0000
 40
0.1524
 41
0.1524
 70
0
  0
VERTEX
  8
20
 10
-43.0000
 20
20.0000
 30
0.0000
  0
VERTEX
  8
20
 10
-35.0000
 20
20.0000
 30
0.0000
  0
SEQEND
  8
0
  0
POLYLINE
  8
20
 66
1
 10
0.0000
 20
0.0000
 30
0.0000
 40
0.0762
 41
0.0762
 70
0
  0
VERTEX
  8
20
 10
-35.0000
 20
19.9619
 30
0.0000
 42
1.0000
  0
VERTEX
  8
20
 10
-35.0000
 20
20.0381
 30
0.0000
  0
SEQEND
  8
0
  0
POLYLINE
  8
20
 66
1
 10
0.0000
 20
0.0000
 30
0.0000
 40
0.0762
 41
0.0762
 70
0
  0
VERTEX
  8
20
 10
-43.0000
 20
20.0381
 30
0.0000
 42
1.0000
  0
VERTEX
  8
20
 10
-43.0000
 20
19.9619
 30
0.0000
  0
SEQEND
  8
0
  0
POLYLINE
  8
20
 66
1
 10
0.0000
 20
0.0000
 30
0.0000
 40
0.1524
 41
0.1524
 70
0
  0
VERTEX
  8
20
 10
-35.0000
 20
20.0000
 30
0.0000
  0
VERTEX
  8
20
 10
-35.0000
 20
18.0000
 30
0.0000
  0
SEQEND
  8
0
  0
POLYLINE
  8
20
 66
1
 10
0.0000
 20
0.0000
 30
0.0000
 40
0.0762
 41
0.0762
 70
0
  0
VERTEX
  8
20
 10
-35.0381
 20
18.0000
 30
0.0000
 42
1.0000
  0
VERTEX
  8
20
 10
-34.9619
 20
18.0000
 30
0.0000
  0
SEQEND
  8
0
  0
POLYLINE
  8
20
 66
1
 10
0.0000
 20
0.0000
 30
0.0000
 40
0.0762
 41
0.0762
 70
0
  0
VERTEX
  8
20
 10
-34.9619
 20
20.0000
 30
0.0000
 42
1.0000
  0
VERTEX
  8
20
 10
-35.0381
 20
20.0000
 30
0.0000
  0
SEQEND
  8
0
  0
POLYLINE
  8
20
 66
1
 10
0.0000
 20
0.0000
 30
0.0000
 40
0.1524
 41
0.1524
 70
0
  0
VERTEX
  8
20
 10
-45.0000
 20
17.0000
 30
0.0000
  0
VERTEX
  8
20
 10
-43.0000
 20
17.0000
 30
0.0000
  0
SEQEND
  8
0
  0
POLYLINE
  8
20
 66
1
 10
0.0000
 20
0.0000
 30
0.0000
 40
0.0762
 41
0.0762
 70
0
  0
VERTEX
  8
20
 10
-43.0000
 20
16.9619
 30
0.0000
 42
1.0000
  0
VERTEX
  8
20
 10
-43.0000
 20
17.0381
 30
0.0000
  0
SEQEND
  8
0
  0
POLYLINE
  8
20
 66
1
 10
0.0000
 20
0.0000
 30
0.0000
 40
0.0762
 41
0.0762
 70
0
  0
VERTEX
  8
20
 10
-45.0000
 20
17.0381
 30
0.0000
 42
1.0000
  0
VERTEX
  8
20
 10
-45.0000
 20
16.9619
 30
0.0000
  0
SEQEND
  8
0
  0
POLYLINE
  8
20
 66
1
 10
0.0000
 20
0.0000
 30
0.0000
 40
0.1524
 41
0.1524
 70
0
  0
VERTEX
  8
20
 10
33.0000
 20
18.0000
 30
0.0000
  0
VERTEX
  8
20
 10
35.0000
 20
18.0000
 30
0.0000
  0
SEQEND
  8
0
  0
POLYLINE
  8
20
 66
1
 10
0.0000
 20
0.0000
 30
0.0000
 40
0.0762
 41
0.0762
 70
0
  0
VERTEX
  8
20
 10
35.0000
 20
17.9619
 30
0.0000
 42
1.0000
  0
VERTEX
  8
20
 10
35.0000
 20
18.0381
 30
0.0000
  0
SEQEND
  8
0
  0
POLYLINE
  8
20
 66
1
 10
0.0000
 20
0.0000
 30
0.0000
 40
0.0762
 41
0.0762
 70
0
  0
VERTEX
  8
20
 10
33.0000
 20
18.0381
 30
0.0000
 42
1.0000
  0
VERTEX
  8
20
 10
33.0000
 20
17.9619
 30
0.0000
  0
SEQEND
  8
0
  0
POLYLINE
  8
20
 66
1
 10
0.0000
 20
0.0000
 30
0.0000
 40
0.1524
 41
0.1524
 70
0
  0
VERTEX
  8
20
 10
35.0000
 20
20.0000
 30
0.0000
  0
VERTEX
  8
20
 10
43.0000
 20
20.0000
 30
0.0000
  0
SEQEND
  8
0
  0
POLYLINE
  8
20
 66
1
 10
0.0000
 20
0.0000
 30
0.0000
 40
0.0762
 41
0.0762
 70
0
  0
VERTEX
  8
20
 10
43.0000
 20
19.9619
 30
0.0000
 42
1.0000
  0
VERTEX
  8
20
 10
43.0000
 20
20.0381
 30
0.0000
  0
SEQEND
  8
0
  0
POLYLINE
  8
20
 66
1
 10
0.0000
 20
0.0000
 30
0.0000
 40
0.0762
 41
0.0762
 70
0
  0
VERTEX
  8
20
 10
35.0000
 20
20.0381
 30
0.0000
 42
1.0000
  0
VERTEX
  8
20
 10
35.0000
 20
19.9619
 30
0.0000
  0
SEQEND
  8
0
  0
POLYLINE
  8
20
 66
1
 10
0.0000
 20
0.0000
 30
0.0000
 40
0.1524
 41
0.1524
 70
0
  0
VERTEX
  8
20
 10
35.0000
 20
20.0000
 30
0.0000
  0
VERTEX
  8
20
 10
35.0000
 20
18.0000
 30
0.0000
  0
SEQEND
  8
0
  0
POLYLINE
  8
20
 66
1
 10
0.0000
 20
0.0000
 30
0.0000
 40
0.0762
 41
0.0762
 70
0
  0
VERTEX
  8
20
 10
34.9619
 20
18.0000
 30
0.0000
 42
1.0000
  0
VERTEX
  8
20
 10
35.0381
 20
18.0000
 30
0.0000
  0
SEQEND
  8
0
  0
POLYLINE
  8
20
 66
1
 10
0.0000
 20
0.0000
 30
0.0000
 40
0.0762
 41
0.0762
 70
0
  0
VERTEX
  8
20
 10
35.0381
 20
20.0000
 30
0.0000
 42
1.0000
  0
VERTEX
  8
20
 10
34.9619
 20
20.0000
 30
0.0000
  0
SEQEND
  8
0
  0
POLYLINE
  8
20
 66
1
 10
0.0000
 20
0.0000
 30
0.0000
 40
0.1524
 41
0.1524
 70
0
  0
VERTEX
  8
20
 10
43.0000
 20
17.0000
 30
0.0000
  0
VERTEX
  8
20
 10
45.0000
 20
17.0000
 30
0.0000
  0
SEQEND
  8
0
  0
POLYLINE
  8
20
 66
1
 10
0.0000
 20
0.0000
 30
0.0000
 40
0.0762
 41
0.0762
 70
0
  0
VERTEX
  8
20
 10
45.0000
 20
16.9619
 30
0.0000
 42
1.0000
  0
VERTEX
  8
20
 10
45.0000
 20
17.0381
 30
0.0000
  0
SEQEND
  8
0
  0
POLYLINE
  8
20
 66
1
 10
0.0000
 20
0.0000
 30
0.0000
 40
0.0762
 41
0.0762
 70
0
  0
VERTEX
  8
20
 10
43.0000
 20
17.0381
 30
0.0000
 42
1.0000
  0
VERTEX
  8
20
 10
43.0000
 20
16.9619
 30
0.0000
  0
SEQEND
  8
0
  0
POLYLINE
  8
20
 66
1
 10
0.0000
 20
0.0000
 30
0.0000
 40
0.1524
 41
0.1524
 70
0
  0
VERTEX
  8
20
 10
-46.0000
 20
12.0000
 30
0.0000
  0
VERTEX
  8
20
 10
-45.0000
 20
17.0000
 30
0.0000
  0
SEQEND
  8
0
  0
POLYLINE
  8
20
 66
1
 10
0.0000
 20
0.0000
 30
0.0000
 40
0.0762
 41
0.0762
 70
0
  0
VERTEX
  8
20
 10
-44.9626
 20
16.9925
 30
0.0000
 42
1.0000
  0
VERTEX
  8
20
 10
-45.0374
 20
17.0075
 30
0.0000
  0
SEQEND
  8
0
  0
POLYLINE
  8
20
 66
1
 10
0.0000
 20
0.0000
 30
0.0000
 40
0.0762
 41
0.0762
 70
0
  0
VERTEX
  8
20
 10
-46.0374
 20
12.0075
 30
0.0000
 42
1.0000
  0
VERTEX
  8
20
 10
-45.9626
 20
11.9925
 30
0.0000
  0
SEQEND
  8
0
  0
POLYLINE
  8
20
 66
1
 10
0.0000
 20
0.0000
 30
0.0000
 40
0.1524
 41
0.1524
 70
0
  0
VERTEX
  8
20
 10
43.0000
 20
20.0000
 30
0.0000
  0
VERTEX
  8
20
 10
43.0000
 20
17.0000
 30
0.0000
  0
SEQEND
  8
0
  0
POLYLINE
  8
20
 66
1
 10
0.0000
 20
0.0000
 30
0.0000
 40
0.0762
 41
0.0762
 70
0
  0
VERTEX
  8
20
 10
42.9619
 20
17.0000
 30
0.0000
 42
1.0000
  0
VERTEX
  8
20
 10
43.0381
 20
17.0000
 30
0.0000
  0
SEQEND
  8
0
  0
POLYLINE
  8
20
 66
1
 10
0.0000
 20
0.0000
 30
0.0000
 40
0.0762
 41
0.0762
 70
0
  0
VERTEX
  8
20
 10
43.0381
 20
20.0000
 30
0.0000
 42
1.0000
  0
VERTEX
  8
20
 10
42.9619
 20
20.0000
 30
0.0000
  0
SEQEND
  8
0
  0
POLYLINE
  8
20
 66
1
 10
0.0000
 20
0.0000
 30
0.0000
 40
0.1524
 41
0.1524
 70
0
  0
VERTEX
  8
20
 10
45.0000
 20
11.0000
 30
0.0000
  0
VERTEX
  8
20
 10
42.0000
 20
-5.0000
 30
0.0000
  0
SEQEND
  8
0
  0
POLYLINE
  8
20
 66
1
 10
0.0000
 20
0.0000
 30
0.0000
 40
0.0762
 41
0.0762
 70
0
  0
VERTEX
  8
20
 10
41.9626
 20
-4.9930
 30
0.0000
 42
1.0000
  0
VERTEX
  8
20
 10
42.0374
 20
-5.0070
 30
0.0000
  0
SEQEND
  8
0
  0
POLYLINE
  8
20
 66
1
 10
0.0000
 20
0.0000
 30
0.0000
 40
0.0762
 41
0.0762
 70
0
  0
VERTEX
  8
20
 10
45.0374
 20
10.9930
 30
0.0000
 42
1.0000
  0
VERTEX
  8
20
 10
44.9626
 20
11.0070
 30
0.0000
  0
SEQEND
  8
0
  0
POLYLINE
  8
20
 66
1
 10
0.0000
 20
0.0000
 30
0.0000
 40
0.1524
 41
0.1524
 70
0
  0
VERTEX
  8
20
 10
44.0000
 20
-5.0000
 30
0.0000
  0
VERTEX
  8
20
 10
42.0000
 20
-5.0000
 30
0.0000
  0
SEQEND
  8
0
  0
POLYLINE
  8
20
 66
1
 10
0.0000
 20
0.0000
 30
0.0000
 40
0.0762
 41
0.0762
 70
0
  0
VERTEX
  8
20
 10
42.0000
 20
-4.9619
 30
0.0000
 42
1.0000
  0
VERTEX
  8
20
 10
42.0000
 20
-5.0381
 30
0.0000
  0
SEQEND
  8
0
  0
POLYLINE
  8
20
 66
1
 10
0.0000
 20
0.0000
 30
0.0000
 40
0.0762
 41
0.0762
 70
0
  0
VERTEX
  8
20
 10
44.0000
 20
-5.0381
 30
0.0000
 42
1.0000
  0
VERTEX
  8
20
 10
44.0000
 20
-4.9619
 30
0.0000
  0
SEQEND
  8
0
  0
POLYLINE
  8
20
 66
1
 10
0.0000
 20
0.0000
 30
0.0000
 40
0.1524
 41
0.1524
 70
0
  0
VERTEX
  8
20
 10
44.0000
 20
-5.0000
 30
0.0000
  0
VERTEX
  8
20
 10
47.0000
 20
-10.0000
 30
0.0000
  0
SEQEND
  8
0
  0
POLYLINE
  8
20
 66
1
 10
0.0000
 20
0.0000
 30
0.0000
 40
0.0762
 41
0.0762
 70
0
  0
VERTEX
  8
20
 10
46.9673
 20
-10.0196
 30
0.0000
 42
1.0000
  0
VERTEX
  8
20
 10
47.0327
 20
-9.9804
 30
0.0000
  0
SEQEND
  8
0
  0
POLYLINE
  8
20
 66
1
 10
0.0000
 20
0.0000
 30
0.0000
 40
0.0762
 41
0.0762
 70
0
  0
VERTEX
  8
20
 10
44.0327
 20
-4.9804
 30
0.0000
 42
1.0000
  0
VERTEX
  8
20
 10
43.9673
 20
-5.0196
 30
0.0000
  0
SEQEND
  8
0
  0
POLYLINE
  8
20
 66
1
 10
0.0000
 20
0.0000
 30
0.0000
 40
0.1524
 41
0.1524
 70
0
  0
VERTEX
  8
20
 10
35.0000
 20
-10.0000
 30
0.0000
  0
VERTEX
  8
20
 10
47.0000
 20
-10.0000
 30
0.0000
  0
SEQEND
  8
0
  0
POLYLINE
  8
20
 66
1
 10
0.0000
 20
0.0000
 30
0.0000
 40
0.0762
 41
0.0762
 70
0
  0
VERTEX
  8
20
 10
47.0000
 20
-10.0381
 30
0.0000
 42
1.0000
  0
VERTEX
  8
20
 10
47.0000
 20
-9.9619
 30
0.0000
  0
SEQEND
  8
0
  0
POLYLINE
  8
20
 66
1
 10
0.0000
 20
0.0000
 30
0.0000
 40
0.0762
 41
0.0762
 70
0
  0
VERTEX
  8
20
 10
35.0000
 20
-9.9619
 30
0.0000
 42
1.0000
  0
VERTEX
  8
20
 10
35.0000
 20
-10.0381
 30
0.0000
  0
SEQEND
  8
0
  0
POLYLINE
  8
20
 66
1
 10
0.0000
 20
0.0000
 30
0.0000
 40
0.1524
 41
0.1524
 70
0
  0
VERTEX
  8
20
 10
35.0000
 20
-10.0000
 30
0.0000
  0
VERTEX
  8
20
 10
35.0000
 20
-6.0000
 30
0.0000
  0
SEQEND
  8
0
  0
POLYLINE
  8
20
 66
1
 10
0.0000
 20
0.0000
 30
0.0000
 40
0.0762
 41
0.0762
 70
0
  0
VERTEX
  8
20
 10
35.0381
 20
-6.0000
 30
0.0000
 42
1.0000
  0
VERTEX
  8
20
 10
34.9619
 20
-6.0000
 30
0.0000
  0
SEQEND
  8
0
  0
POLYLINE
  8
20
 66
1
 10
0.0000
 20
0.0000
 30
0.0000
 40
0.0762
 41
0.0762
 70
0
  0
VERTEX
  8
20
 10
34.9619
 20
-10.0000
 30
0.0000
 42
1.0000
  0
VERTEX
  8
20
 10
35.0381
 20
-10.0000
 30
0.0000
  0
SEQEND
  8
0
  0
POLYLINE
  8
20
 66
1
 10
0.0000
 20
0.0000
 30
0.0000
 40
0.1524
 41
0.1524
 70
0
  0
VERTEX
  8
20
 10
33.0000
 20
-6.0000
 30
0.0000
  0
VERTEX
  8
20
 10
35.0000
 20
-6.0000
 30
0.0000
  0
SEQEND
  8
0
  0
POLYLINE
  8
20
 66
1
 10
0.0000
 20
0.0000
 30
0.0000
 40
0.0762
 41
0.0762
 70
0
  0
VERTEX
  8
20
 10
35.0000
 20
-6.0381
 30
0.0000
 42
1.0000
  0
VERTEX
  8
20
 10
35.0000
 20
-5.9619
 30
0.0000
  0
SEQEND
  8
0
  0
POLYLINE
  8
20
 66
1
 10
0.0000
 20
0.0000
 30
0.0000
 40
0.0762
 41
0.0762
 70
0
  0
VERTEX
  8
20
 10
33.0000
 20
-5.9619
 30
0.0000
 42
1.0000
  0
VERTEX
  8
20
 10
33.0000
 20
-6.0381
 30
0.0000
  0
SEQEND
  8
0
  0
POLYLINE
  8
20
 66
1
 10
0.0000
 20
0.0000
 30
0.0000
 40
0.1524
 41
0.1524
 70
0
  0
VERTEX
  8
20
 10
45.0000
 20
17.0000
 30
0.0000
  0
VERTEX
  8
20
 10
46.0000
 20
12.0000
 30
0.0000
  0
SEQEND
  8
0
  0
POLYLINE
  8
20
 66
1
 10
0.0000
 20
0.0000
 30
0.0000
 40
0.0762
 41
0.0762
 70
0
  0
VERTEX
  8
20
 10
45.9626
 20
11.9925
 30
0.0000
 42
1.0000
  0
VERTEX
  8
20
 10
46.0374
 20
12.0075
 30
0.0000
  0
SEQEND
  8
0
  0
POLYLINE
  8
20
 66
1
 10
0.0000
 20
0.0000
 30
0.0000
 40
0.0762
 41
0.0762
 70
0
  0
VERTEX
  8
20
 10
45.0374
 20
17.0075
 30
0.0000
 42
1.0000
  0
VERTEX
  8
20
 10
44.9626
 20
16.9925
 30
0.0000
  0
SEQEND
  8
0
  0
POLYLINE
  8
20
 66
1
 10
0.0000
 20
0.0000
 30
0.0000
 40
0.1524
 41
0.1524
 70
0
  0
VERTEX
  8
20
 10
45.0000
 20
11.0000
 30
0.0000
  0
VERTEX
  8
20
 10
46.0000
 20
12.0000
 30
0.0000
  0
SEQEND
  8
0
  0
POLYLINE
  8
20
 66
1
 10
0.0000
 20
0.0000
 30
0.0000
 40
0.0762
 41
0.0762
 70
0
  0
VERTEX
  8
20
 10
46.0269
 20
11.9731
 30
0.0000
 42
1.0000
  0
VERTEX
  8
20
 10
45.9731
 20
12.0269
 30
0.0000
  0
SEQEND
  8
0
  0
POLYLINE
  8
20
 66
1
 10
0.0000
 20
0.0000
 30
0.0000
 40
0.0762
 41
0.0762
 70
0
  0
VERTEX
  8
20
 10
44.9731
 20
11.0269
 30
0.0000
 42
1.0000
  0
VERTEX
  8
20
 10
45.0269
 20
10.9731
 30
0.0000
  0
SEQEND
  8
0
  0
POLYLINE
  8
20
 66
1
 10
0.0000
 20
0.0000
 30
0.0000
 40
0.1524
 41
0.1524
 70
0
  0
VERTEX
  8
20
 10
-8.0000
 20
-45.0000
 30
0.0000
  0
VERTEX
  8
20
 10
8.0000
 20
-45.0000
 30
0.0000
  0
SEQEND
  8
0
  0
POLYLINE
  8
20
 66
1
 10
0.0000
 20
0.0000
 30
0.0000
 40
0.0762
 41
0.0762
 70
0
  0
VERTEX
  8
20
 10
8.0000
 20
-45.0381
 30
0.0000
 42
1.0000
  0
VERTEX
  8
20
 10
8.0000
 20
-44.9619
 30
0.0000
  0
SEQEND
  8
0
  0
POLYLINE
  8
20
 66
1
 10
0.0000
 20
0.0000
 30
0.0000
 40
0.0762
 41
0.0762
 70
0
  0
VERTEX
  8
20
 10
-8.0000
 20
-44.9619
 30
0.0000
 42
1.0000
  0
VERTEX
  8
20
 10
-8.0000
 20
-45.0381
 30
0.0000
  0
SEQEND
  8
0
  0
POLYLINE
  8
20
 66
1
 10
0.0000
 20
0.0000
 30
0.0000
 40
0.1524
 41
0.1524
 70
0
  0
VERTEX
  8
20
 10
15.0000
 20
-41.0000
 30
0.0000
  0
VERTEX
  8
20
 10
18.0000
 20
-40.0000
 30
0.0000
  0
SEQEND
  8
0
  0
POLYLINE
  8
20
 66
1
 10
0.0000
 20
0.0000
 30
0.0000
 40
0.0762
 41
0.0762
 70
0
  0
VERTEX
  8
20
 10
18.0120
 20
-40.0361
 30
0.0000
 42
1.0000
  0
VERTEX
  8
20
 10
17.9880
 20
-39.9639
 30
0.0000
  0
SEQEND
  8
0
  0
POLYLINE
  8
20
 66
1
 10
0.0000
 20
0.0000
 30
0.0000
 40
0.0762
 41
0.0762
 70
0
  0
VERTEX
  8
20
 10
14.9880
 20
-40.9639
 30
0.0000
 42
1.0000
  0
VERTEX
  8
20
 10
15.0120
 20
-41.0361
 30
0.0000
  0
SEQEND
  8
0
  0
POLYLINE
  8
20
 66
1
 10
0.0000
 20
0.0000
 30
0.0000
 40
0.1524
 41
0.1524
 70
0
  0
VERTEX
  8
20
 10
18.0000
 20
-40.0000
 30
0.0000
  0
VERTEX
  8
20
 10
21.0000
 20
-41.0000
 30
0.0000
  0
SEQEND
  8
0
  0
POLYLINE
  8
20
 66
1
 10
0.0000
 20
0.0000
 30
0.0000
 40
0.0762
 41
0.0762
 70
0
  0
VERTEX
  8
20
 10
20.9880
 20
-41.0361
 30
0.0000
 42
1.0000
  0
VERTEX
  8
20
 10
21.0120
 20
-40.9639
 30
0.0000
  0
SEQEND
  8
0
  0
POLYLINE
  8
20
 66
1
 10
0.0000
 20
0.0000
 30
0.0000
 40
0.0762
 41
0.0762
 70
0
  0
VERTEX
  8
20
 10
18.0120
 20
-39.9639
 30
0.0000
 42
1.0000
  0
VERTEX
  8
20
 10
17.9880
 20
-40.0361
 30
0.0000
  0
SEQEND
  8
0
  0
POLYLINE
  8
20
 66
1
 10
0.0000
 20
0.0000
 30
0.0000
 40
0.1524
 41
0.1524
 70
0
  0
VERTEX
  8
20
 10
21.0000
 20
-41.0000
 30
0.0000
  0
VERTEX
  8
20
 10
22.0000
 20
-41.0000
 30
0.0000
  0
SEQEND
  8
0
  0
POLYLINE
  8
20
 66
1
 10
0.0000
 20
0.0000
 30
0.0000
 40
0.0762
 41
0.0762
 70
0
  0
VERTEX
  8
20
 10
22.0000
 20
-41.0381
 30
0.0000
 42
1.0000
  0
VERTEX
  8
20
 10
22.0000
 20
-40.9619
 30
0.0000
  0
SEQEND
  8
0
  0
POLYLINE
  8
20
 66
1
 10
0.0000
 20
0.0000
 30
0.0000
 40
0.0762
 41
0.0762
 70
0
  0
VERTEX
  8
20
 10
21.0000
 20
-40.9619
 30
0.0000
 42
1.0000
  0
VERTEX
  8
20
 10
21.0000
 20
-41.0381
 30
0.0000
  0
SEQEND
  8
0
  0
POLYLINE
  8
20
 66
1
 10
0.0000
 20
0.0000
 30
0.0000
 40
0.1524
 41
0.1524
 70
0
  0
VERTEX
  8
20
 10
22.0000
 20
-41.0000
 30
0.0000
  0
VERTEX
  8
20
 10
19.0000
 20
-33.0000
 30
0.0000
  0
SEQEND
  8
0
  0
POLYLINE
  8
20
 66
1
 10
0.0000
 20
0.0000
 30
0.0000
 40
0.0762
 41
0.0762
 70
0
  0
VERTEX
  8
20
 10
19.0357
 20
-32.9866
 30
0.0000
 42
1.0000
  0
VERTEX
  8
20
 10
18.9643
 20
-33.0134
 30
0.0000
  0
SEQEND
  8
0
  0
POLYLINE
  8
20
 66
1
 10
0.0000
 20
0.0000
 30
0.0000
 40
0.0762
 41
0.0762
 70
0
  0
VERTEX
  8
20
 10
21.9643
 20
-41.0134
 30
0.0000
 42
1.0000
  0
VERTEX
  8
20
 10
22.0357
 20
-40.9866
 30
0.0000
  0
SEQEND
  8
0
  0
POLYLINE
  8
20
 66
1
 10
0.0000
 20
0.0000
 30
0.0000
 40
0.1524
 41
0.1524
 70
0
  0
VERTEX
  8
20
 10
8.0000
 20
-45.0000
 30
0.0000
  0
VERTEX
  8
20
 10
13.0000
 20
-41.0000
 30
0.0000
  0
SEQEND
  8
0
  0
POLYLINE
  8
20
 66
1
 10
0.0000
 20
0.0000
 30
0.0000
 40
0.0762
 41
0.0762
 70
0
  0
VERTEX
  8
20
 10
13.0238
 20
-41.0298
 30
0.0000
 42
1.0000
  0
VERTEX
  8
20
 10
12.9762
 20
-40.9702
 30
0.0000
  0
SEQEND
  8
0
  0
POLYLINE
  8
20
 66
1
 10
0.0000
 20
0.0000
 30
0.0000
 40
0.0762
 41
0.0762
 70
0
  0
VERTEX
  8
20
 10
7.9762
 20
-44.9702
 30
0.0000
 42
1.0000
  0
VERTEX
  8
20
 10
8.0238
 20
-45.0298
 30
0.0000
  0
SEQEND
  8
0
  0
POLYLINE
  8
20
 66
1
 10
0.0000
 20
0.0000
 30
0.0000
 40
0.1524
 41
0.1524
 70
0
  0
VERTEX
  8
20
 10
-19.0000
 20
-33.0000
 30
0.0000
  0
VERTEX
  8
20
 10
-22.0000
 20
-41.0000
 30
0.0000
  0
SEQEND
  8
0
  0
POLYLINE
  8
20
 66
1
 10
0.0000
 20
0.0000
 30
0.0000
 40
0.0762
 41
0.0762
 70
0
  0
VERTEX
  8
20
 10
-22.0357
 20
-40.9866
 30
0.0000
 42
1.0000
  0
VERTEX
  8
20
 10
-21.9643
 20
-41.0134
 30
0.0000
  0
SEQEND
  8
0
  0
POLYLINE
  8
20
 66
1
 10
0.0000
 20
0.0000
 30
0.0000
 40
0.0762
 41
0.0762
 70
0
  0
VERTEX
  8
20
 10
-18.9643
 20
-33.0134
 30
0.0000
 42
1.0000
  0
VERTEX
  8
20
 10
-19.0357
 20
-32.9866
 30
0.0000
  0
SEQEND
  8
0
  0
POLYLINE
  8
20
 66
1
 10
0.0000
 20
0.0000
 30
0.0000
 40
0.1524
 41
0.1524
 70
0
  0
VERTEX
  8
20
 10
-22.0000
 20
-41.0000
 30
0.0000
  0
VERTEX
  8
20
 10
-21.0000
 20
-41.0000
 30
0.0000
  0
SEQEND
  8
0
  0
POLYLINE
  8
20
 66
1
 10
0.0000
 20
0.0000
 30
0.0000
 40
0.0762
 41
0.0762
 70
0
  0
VERTEX
  8
20
 10
-21.0000
 20
-41.0381
 30
0.0000
 42
1.0000
  0
VERTEX
  8
20
 10
-21.0000
 20
-40.9619
 30
0.0000
  0
SEQEND
  8
0
  0
POLYLINE
  8
20
 66
1
 10
0.0000
 20
0.0000
 30
0.0000
 40
0.0762
 41
0.0762
 70
0
  0
VERTEX
  8
20
 10
-22.0000
 20
-40.9619
 30
0.0000
 42
1.0000
  0
VERTEX
  8
20
 10
-22.0000
 20
-41.0381
 30
0.0000
  0
SEQEND
  8
0
  0
POLYLINE
  8
20
 66
1
 10
0.0000
 20
0.0000
 30
0.0000
 40
0.1524
 41
0.1524
 70
0
  0
VERTEX
  8
20
 10
-21.0000
 20
-41.0000
 30
0.0000
  0
VERTEX
  8
20
 10
-18.0000
 20
-40.0000
 30
0.0000
  0
SEQEND
  8
0
  0
POLYLINE
  8
20
 66
1
 10
0.0000
 20
0.0000
 30
0.0000
 40
0.0762
 41
0.0762
 70
0
  0
VERTEX
  8
20
 10
-17.9880
 20
-40.0361
 30
0.0000
 42
1.0000
  0
VERTEX
  8
20
 10
-18.0120
 20
-39.9639
 30
0.0000
  0
SEQEND
  8
0
  0
POLYLINE
  8
20
 66
1
 10
0.0000
 20
0.0000
 30
0.0000
 40
0.0762
 41
0.0762
 70
0
  0
VERTEX
  8
20
 10
-21.0120
 20
-40.9639
 30
0.0000
 42
1.0000
  0
VERTEX
  8
20
 10
-20.9880
 20
-41.0361
 30
0.0000
  0
SEQEND
  8
0
  0
POLYLINE
  8
20
 66
1
 10
0.0000
 20
0.0000
 30
0.0000
 40
0.1524
 41
0.1524
 70
0
  0
VERTEX
  8
20
 10
-18.0000
 20
-40.0000
 30
0.0000
  0
VERTEX
  8
20
 10
-15.0000
 20
-41.0000
 30
0.0000
  0
SEQEND
  8
0
  0
POLYLINE
  8
20
 66
1
 10
0.0000
 20
0.0000
 30
0.0000
 40
0.0762
 41
0.0762
 70
0
  0
VERTEX
  8
20
 10
-15.0120
 20
-41.0361
 30
0.0000
 42
1.0000
  0
VERTEX
  8
20
 10
-14.9880
 20
-40.9639
 30
0.0000
  0
SEQEND
  8
0
  0
POLYLINE
  8
20
 66
1
 10
0.0000
 20
0.0000
 30
0.0000
 40
0.0762
 41
0.0762
 70
0
  0
VERTEX
  8
20
 10
-17.9880
 20
-39.9639
 30
0.0000
 42
1.0000
  0
VERTEX
  8
20
 10
-18.0120
 20
-40.0361
 30
0.0000
  0
SEQEND
  8
0
  0
POLYLINE
  8
20
 66
1
 10
0.0000
 20
0.0000
 30
0.0000
 40
0.1524
 41
0.1524
 70
0
  0
VERTEX
  8
20
 10
-13.0000
 20
-41.0000
 30
0.0000
  0
VERTEX
  8
20
 10
-8.0000
 20
-45.0000
 30
0.0000
  0
SEQEND
  8
0
  0
POLYLINE
  8
20
 66
1
 10
0.0000
 20
0.0000
 30
0.0000
 40
0.0762
 41
0.0762
 70
0
  0
VERTEX
  8
20
 10
-8.0238
 20
-45.0298
 30
0.0000
 42
1.0000
  0
VERTEX
  8
20
 10
-7.9762
 20
-44.9702
 30
0.0000
  0
SEQEND
  8
0
  0
POLYLINE
  8
20
 66
1
 10
0.0000
 20
0.0000
 30
0.0000
 40
0.0762
 41
0.0762
 70
0
  0
VERTEX
  8
20
 10
-12.9762
 20
-40.9702
 30
0.0000
 42
1.0000
  0
VERTEX
  8
20
 10
-13.0238
 20
-41.0298
 30
0.0000
  0
SEQEND
  8
0
  0
POLYLINE
  8
20
 66
1
 10
0.0000
 20
0.0000
 30
0.0000
 40
0.1524
 41
0.1524
 70
0
  0
VERTEX
  8
20
 10
-13.0000
 20
-41.0000
 30
0.0000
  0
VERTEX
  8
20
 10
-15.0000
 20
-41.0000
 30
0.0000
  0
SEQEND
  8
0
  0
POLYLINE
  8
20
 66
1
 10
0.0000
 20
0.0000
 30
0.0000
 40
0.0762
 41
0.0762
 70
0
  0
VERTEX
  8
20
 10
-15.0000
 20
-40.9619
 30
0.0000
 42
1.0000
  0
VERTEX
  8
20
 10
-15.0000
 20
-41.0381
 30
0.0000
  0
SEQEND
  8
0
  0
POLYLINE
  8
20
 66
1
 10
0.0000
 20
0.0000
 30
0.0000
 40
0.0762
 41
0.0762
 70
0
  0
VERTEX
  8
20
 10
-13.0000
 20
-41.0381
 30
0.0000
 42
1.0000
  0
VERTEX
  8
20
 10
-13.0000
 20
-40.9619
 30
0.0000
  0
SEQEND
  8
0
  0
POLYLINE
  8
20
 66
1
 10
0.0000
 20
0.0000
 30
0.0000
 40
0.1524
 41
0.1524
 70
0
  0
VERTEX
  8
20
 10
15.0000
 20
-41.0000
 30
0.0000
  0
VERTEX
  8
20
 10
13.0000
 20
-41.0000
 30
0.0000
  0
SEQEND
  8
0
  0
POLYLINE
  8
20
 66
1
 10
0.0000
 20
0.0000
 30
0.0000
 40
0.0762
 41
0.0762
 70
0
  0
VERTEX
  8
20
 10
13.0000
 20
-40.9619
 30
0.0000
 42
1.0000
  0
VERTEX
  8
20
 10
13.0000
 20
-41.0381
 30
0.0000
  0
SEQEND
  8
0
  0
POLYLINE
  8
20
 66
1
 10
0.0000
 20
0.0000
 30
0.0000
 40
0.0762
 41
0.0762
 70
0
  0
VERTEX
  8
20
 10
15.0000
 20
-41.0381
 30
0.0000
 42
1.0000
  0
VERTEX
  8
20
 10
15.0000
 20
-40.9619
 30
0.0000
  0
SEQEND
  8
0
  0
ENDSEC
  0
EOF
